/* XPM */
static char *ceddf31cf5b84286e675621abee6bb521sqO2D9tFsRQ52Dv[] = {
/* columns rows colors chars-per-pixel */
"64 64 226 2 ",
"   c #030404",
".  c #080606",
"X  c #0A0807",
"o  c #02050A",
"O  c #030A0C",
"+  c #0D0D0C",
"@  c #110F0C",
"#  c #14110D",
"$  c #040D12",
"%  c #051116",
"&  c #0A1213",
"*  c #05131A",
"=  c #09171C",
"-  c #0C191C",
";  c #191A17",
":  c #1D1A16",
">  c #211D16",
",  c #211D1A",
"<  c #26221C",
"1  c #29241C",
"2  c #061A24",
"3  c #091C24",
"4  c #071D29",
"5  c #031F35",
"6  c #01212C",
"7  c #0A222B",
"8  c #022333",
"9  c #082837",
"0  c #03243B",
"q  c #0A2B3C",
"w  c #132D35",
"e  c #0F323C",
"r  c #2B2823",
"t  c #342D24",
"y  c #3C362C",
"u  c #473E2E",
"i  c #443E37",
"p  c #3F413E",
"a  c #4B4336",
"s  c #534939",
"d  c #5E533F",
"f  c #083548",
"g  c #0C354B",
"h  c #113849",
"j  c #0A3B56",
"k  c #033D65",
"l  c #0C445A",
"z  c #0D495C",
"x  c #174553",
"c  c #2C5156",
"v  c #0D4463",
"b  c #0B4A67",
"n  c #154A61",
"m  c #124C65",
"M  c #134C69",
"N  c #09516B",
"B  c #13516C",
"V  c #1A576A",
"C  c #0B4A71",
"Z  c #0B4E79",
"A  c #0B5478",
"S  c #0B527D",
"D  c #015B7A",
"F  c #145976",
"G  c #196279",
"H  c #226576",
"J  c #306A77",
"K  c #534D46",
"L  c #4E534F",
"P  c #5A544B",
"I  c #5F594E",
"U  c #635947",
"Y  c #605B50",
"T  c #6E6454",
"R  c #796B51",
"E  c #4D6E6D",
"W  c #7B7369",
"Q  c #867858",
"!  c #877B6B",
"~  c #877F71",
"^  c #998668",
"/  c #92897B",
"(  c #A5916E",
")  c #B29E75",
"_  c #BAA57A",
"`  c #C4AE7F",
"'  c #0C5582",
"]  c #015E83",
"[  c #0D5A85",
"{  c #025E8C",
"}  c #0D5D8B",
"|  c #115E84",
" . c #015793",
".. c #035B96",
"X. c #01628C",
"o. c #0D618E",
"O. c #116185",
"+. c #156A86",
"@. c #11638C",
"#. c #127189",
"$. c #016492",
"%. c #0D6594",
"&. c #0E6996",
"*. c #01669A",
"=. c #01689E",
"-. c #0E6C9A",
";. c #116691",
":. c #136B94",
">. c #116E9A",
",. c #0F719E",
"<. c #13739D",
"1. c #1A749C",
"2. c #167999",
"3. c #1C799E",
"4. c #247592",
"5. c #0264A7",
"6. c #0169A3",
"7. c #016BAB",
"8. c #0F73A2",
"9. c #0F78A8",
"0. c #0F7AAB",
"q. c #1376A1",
"w. c #1976A0",
"e. c #1379A4",
"r. c #1A7BA4",
"t. c #127DAB",
"y. c #1A7EA8",
"u. c #016EB3",
"i. c #026FBA",
"p. c #0171BD",
"a. c #107EB0",
"s. c #0171C1",
"d. c #1481AD",
"f. c #1C83AB",
"g. c #1C86AA",
"h. c #1283B3",
"j. c #1786B3",
"k. c #148BB5",
"l. c #1C8BB3",
"z. c #158DBA",
"x. c #1A8DB9",
"c. c #1791B7",
"v. c #1C92BB",
"b. c #2285AB",
"n. c #2887A8",
"m. c #2389AD",
"M. c #3491A7",
"N. c #248DB2",
"B. c #298EB2",
"V. c #2591B5",
"C. c #2B94B5",
"Z. c #2494BA",
"A. c #2B96B9",
"S. c #2498BF",
"D. c #2C99BB",
"F. c #3499B8",
"G. c #339CBC",
"H. c #2EA1BF",
"J. c #39A2BD",
"K. c #5B8685",
"L. c #6A908F",
"P. c #4393A1",
"I. c #47A6B8",
"U. c #73ABA9",
"Y. c #7CBCB9",
"T. c #199EC3",
"R. c #269AC5",
"E. c #2496C8",
"W. c #339FC0",
"Q. c #19A2C6",
"!. c #1AA4CB",
"~. c #1DA5D3",
"^. c #2AA4C7",
"/. c #34A3C3",
"(. c #3BA4C3",
"). c #3DA9C6",
"_. c #35A9CA",
"`. c #3BACCB",
"'. c #23A8D6",
"]. c #24A9DD",
"[. c #3DB3D1",
"{. c #27AAE1",
"}. c #28ACE5",
"|. c #2AB3E5",
" X c #30BCF0",
".X c #43AAC4",
"XX c #41ADCA",
"oX c #44B2CD",
"OX c #4AB5CC",
"+X c #5ABAC7",
"@X c #46B6D1",
"#X c #46BAD4",
"$X c #4CBCD4",
"%X c #51BCD4",
"&X c #34C7F8",
"*X c #4FC1D7",
"=X c #4FC2D9",
"-X c #53C4DB",
";X c #58C5DA",
":X c #72CDD3",
">X c #5ED0E0",
",X c #43D8FE",
"<X c #60CFE2",
"1X c #68D6E6",
"2X c #71DEEA",
"3X c #79E5EF",
"4X c #A49A8C",
"5X c #ADA394",
"6X c #B2A793",
"7X c #B5AA98",
"8X c #8AAAA9",
"9X c #CAB386",
"0X c #D3BB91",
"qX c #C6B9A5",
"wX c #D8C198",
"eX c #D6C8B1",
"rX c #D7C9B5",
"tX c #DCCEB5",
"yX c #E1D2BB",
"uX c #88D1CF",
"iX c #9EEDEB",
"pX c #B1FFFF",
"aX c #E9DAC2",
"sX c #F7E8CB",
"dX c #F9EACD",
"fX c #CDFFFF",
/* pixels */
"Z S o.S S o.%.%.%.r.XX:.' } } } ' %.%.%.%.} Z Z Z [ :.D.1.Z Z ' ' ' %.b.).>.&.&.f.A.f.>.%.%.' S <.C.| S S Z S S [ S [ 8.v.w.%.} ",
"S S &.} } %.%.%.%.N.;X/.q.-.&.&.} o.%.%.%.[ Z Z Z } g.3.S Z Z Z [ S o.XXG.%.%.%.%.<.b.D.F.G.G.G./.@.A ' S ' } o.%.&.8.8.w.b.>.%.",
"} %.8.8.&.%.%.%.e.l.y.m.Z.e.o.' o.%.%.%.%.[ Z Z S 3.3.[ @.| S Z S o.C.@X<.%.%.[ } %.%.<.y.G.%X1XXX%.} ' ' } S S } &.&.%.%.f.b.&.",
">.&.8.&.-.8.r.A.A.:.S [ <.e.q.} } &.%.%.%.} S S b.OXA.A.A.f.w.y.w.A.<X(.%.%.} ' &.%.%.%.%.%.r.;XoXt.8.&.} ' ' } %.&.%.%.%.%.b.A.",
"`.G./.J.G././.B.>.[ Z [ } [ } w.B.f.y.r.w.b.b.f.$X$Xf.;.' S [ @.;.b.%XD.%.%.} o.&.%.&.,.%.%.&.XXoX-.&.%.%.%.%.%.&.%.&.%.%.%.%.G.",
"(.f.l.A.l.w.>.} %.%.} } } } Z [ B..XN.V.Z.y.>.<.V.m.Z Z Z Z Z Z Z ' f.d.8.8.8.%.' } %.q.t.&.C 4.$X<.%.%.%.%.%.&.%.%.&.%.%.%.%.B.",
"A.%.%.&.&.%.[ Z ' } %.%.} %.} } %.f.e.%.-.&.[ S w.b.S Z Z Z Z Z Z } f.<.%.-.&.%.o.%.%.%.,.<.2 w $Xl.%.%.%.&.&.%.%.%.%.&.%.%.%.>.",
"V.>.%.%.&.%.' Z Z ' } } %.-.&.&.%.>.l.>.&.o.Z S y.:.' ' S Z Z Z S %.l.>.%.%.%.%.%.&.%.%.M f O % c +.,.%.&.&.%.%.%.%.%.%.&.%.%.&.",
"A.r.%.%.%.-.o.' [ S Z S } -.&.%.&.%.r.f.&.&.[ } r.S Z ' } Z Z S } w.).<.%.} } } } %.&.%.g X     O V q.&.&.%.&.%.%.%.%.%.&.%.} o.",
"N.A.%.%.%.%.-.%.[ Z Z S } -.&.&.-.&.<.N.<.-.&.e.r.' Z S o.S ' } %.w.%X1.} Z Z Z Z } &.%.} A * 4 | B.<.&.%.%.%.%.&.&.%.&.} ' [ } ",
"y.OX>.o.%.&.q.,.%.} } } %.-.&.-.-.-.-.Z.e.&.<.D.e.%.[ [ %.o.%.%.%.w.OX<.} [ } [ } %.&.%.[ F * 4 A n.y.%.-.%.%.%.%.%.&.&.S Z Z ' ",
"<.D.<.o.} %.&.8.&.%.%.%.-.-.-.-.-.-.-.t.t.9.Z.Z.8.-.&.-.-.&.&.%.%.N.G.&.%.%.%.%.%.&.&.%.g o     o J XX<.-.-.%.%.%.%.%.%.S Z Z Z ",
"f.w.N.%.%.&.-.8.&.%.%.-.,.-.-.-.-.-.&.N.R.v.W.<.&.-.-.e.-.-.-.&.&.G.f.%.%.%.%.%.%.&.[ j j f O % q n V n.y.&.%.%.%.%.%.%.[ Z Z Z ",
"1.' m.r.S o.9.8.%.&.8.8.-.-.-.-.-.-.<.oX;X>XR.8.-.-.,.-.-.-.-.&.w.OXw.} S ' %.%.%.&.M   v o.= 4 ' g   4.XXw.%.%.%.%.%.%.} Z S :.",
"' Z @.H.@.Z &.8.&.e.t.-.&.&.-.-.-.&.N.oXV.`.[.x.9.e.<.-.-.&.&.&.g.$X;.Z Z j 9 9 9 q 4   2 9 o O 8 =   7 x h q 9 9 g o.%.o.} r.A.",
"Z Z Z 3.N.} } 8.,.d.d.&.%.%.&.-.-.r.`.l.8.t._.#Xv.t.,.-.&.%.%.&.D.G.' Z C h : : : : : : : : : : : : : : : : : : . - 3.w.m.(.f.[ ",
"@.S Z S V.A.>.-.-.t.e.&.&.-.,.,.f._.Z.t.t.a.h.`.=XZ.9.8.-.%.%.&.V.l.[ C * Y tXtXtXtXtXtXtXtXtXtXtXtXtXtXtXtXtXeXi = b.N./.$XA.3.",
"C.g.} S m.G.D.m.<.d.h.t.9.h.d.Z._.x.a.a.a.a.a.z.^.#X#Xv.8.,.<.&.V.V.' C 5 L 6X6X6X6X6X6X6X6X6X6X6X6X6X6X6X6XeXsXs % [ &.9.d.y.m.",
"} w.N.G.b.[ w.G.oX_.^.S.V./.$X1X^.h.a.a.a.a.a.v.^.R.#X=Xf.&.8.y./.G.[ Z Z g .         .                     T sXs % } -.t.9.8.&.",
"%.[ :.).N.o.&.-.f.l.j.x.v.x./.<X-Xz.h.a.a.h.a.z.x.k.h./.$XG./.#X$X/.@.Z Z g   L L.K.c   L L.K.E   c L.K.E o Y yXa * @.8.-.&.&.-.",
"%.&.%.w.D.-.-.-.,.-.8.t.a.h.9.x.[.R.h.h.a.a.a.h.h.a.t.t.`.2XOXN.w.w.f.@.Z g   8XfXpXU.  L.fXpXY.. K.fXpXuX& P eXi * ;.9.%.%.%.%.",
"%.%.-.-.A.r.&.-.9.8.9.a.a.h.h.a.x._.z.h.h.a.9.h.h.9.8.-.y.@Xg.-.%.%.:.f.:.g   U.pXiXL.  L.pXiXU.  K.pXiXY.O I tXa * <.,.%.%.%.%.",
"%.%.&.-.l.l.&.-.9.8.t.a.h.k.k.h.h.`.Z.-.<.<.;.<.:.o.[ [ [ +.2.[ [ S [ ;.m.G w L.uXY.E   E uXY.K.  E uXY.L.X Y yXa * @.&.%.%.%.%.",
"%.%.&.,.f.N.-.,.9.,.9.a.k.z.z.z.k.#XI.4 $ $ $ $ O $ $ O O O $ O O * S o.' <.C.x & & X   X & & O   X & & O   Y yXa * o.&.%.%.%.%.",
"%.o.M B F B m M M m B F F G G 2.c.=X+X% > s s s a t   r s a a a < O Z &.} o.-.q X K I I I I I I Y Y I P K K / tXi * o.%.%.%.%.%.",
"%.' %                         m z.-X:X= s wXwX0X9XQ   R wX9X` 9XU o A &.-.-.-.q , tXdXdXdXdXdXdXdXdXsXaXyXeXeXeXi * | &.%.} [ } ",
"' S $ e H v m b g   q b N A F V l +X:X- s 9X9X9X9XQ   R 0X9X` _ d o A -.-.-.-.q , tXdXaX/ I I I I Y Y P K K K K ; O q f q v Z S ",
"[ Z O c m.} %.&.A   v ,.8.h.h.m X P.M.$ u ) ) ) _ R   U _ ) ) ( s O F :.:.%.@.9 : qXyXeXI X + @ +     X + + + +     O O   j Z Z ",
"o.C O c w.' ' [ v   v -.8.9.8.l   3 3   + > > < > #   # > < > > @   - 7 4 2 2 O   < r r W 6X7X7X7XP   ~ 7X6X6X5Xy % F l   j Z Z ",
"e.3.% h F v v v g   h F | O.O.g   4 2   # 1 +   < :   # < . X , #   2 2   - w $   r ,   ! tXyXeX4XK   W 4X4X4X4Xt $ F j   j [ ' ",
"Z.3.%   o             o o X X   X +.| $ a _ y # ^ R   U ( > < ^ a o | O.O x C.e : 7X/   ~ aXtX4X@       X X X X     o     F N.A.",
"o.C O 7 H F V G H H F F F B B 9 o A ' $ a _ y # ^ R   U ( > < ( s o | :.O g -.q : qX/   ! rX~ E B B B B B B m m m m z e   n ;.@.",
"' C o V ,X&X&X,X,X,X&X&X&X X|.F O F O.$ u ) y @ ! T   d ^ : < ^ s o A O.O f >.q : qX/   W qXr q ].}.}.}.}.}.].~.~.~.!.+.  j Z Z ",
"S Z O x |.].'.|.|. X|.'.|.|.}.E.1.x w   # t #   1 >   : 1 X X r #   4 7   * 9 % X y t   r p 4.l.{.}.}.].'.'.~.!.~.~.!.+.  j S Z ",
"Z A 3 l c.k.k.x.v.E.c.k.E.E.].}.{.j * = = = = = = = = = = = = = = = = = = = = = = = = = * 7 Z.}.{.'.E.v.c.x.k.k.x.c.c.F   j ' Z ",
"[ [ | M * * * * % * % % % f T.'.{.E.E.E.E.E.E.E.E.E.E.E.E.E.E.E.E.E.E.E.E.E.E.E.E.E.E.E.v.v.~.~.!.F * * * * % % % * % O   v %.' ",
"%.} -.4.c -   5 0 0 0 0 0 g +.l.].].].}.}.}.}.}.}.}.}.].].{.}.].].].].].].].{.].].].].].~.~.~.v.#.v 0 0 0 8 0 0 8 8 4 *   v %.%.",
"%.%.y.%X2Xc $ 5.p.i.i.i.p. .o m ~.!.!.{.}.}.}.}.}.}.}.'.!.].{.~.!.!.~.~.~.~.~.!.Q.Q.Q.Q.Q.Q.!.2.X k p.i.u.6.7.i.7.=.] j   v %.&.",
"&.w.oX3X3XI.J j C 7.i.p.s.5.C v z z z m M M M M M M M n z m m m z z z z z z z z z z z z z z z l k  .p.u.7.u.u.u.6.{ f g l ' &.&.",
"G._.*XoXJ.N.1.3 8 *.7.p.p.s.s.k o o o o o o o o o o o o o o o o o o o o o o o o o o o o o o o 0 u.p.p.7.7.p.u.6.$.D O q -.%.w.G.",
"w.<.e.-.%.%.%.S v 4 b =.i.s.s.5. . . . . . . . . . . . . . . . . . . . . . . . . . . . . . . ...7.u.p.7.6.*.$.] ] N O q -.N.oX).",
"%.} } } [ %.&.&.A 3 j D 6.u.u.p.s.s.s.s.s.s.s.s.s.s.s.s.s.s.s.p.p.i.p.s.p.p.s.p.i.p.p.u.p.p.i.u.6.7.u.6.*.X.] D N l w H XXoXm.&.",
"&.o.} %.' [ %.&.%.%.g O N ] $.6.p.p.p.s.s.s.s.s.p.p.s.p.p.s.i.7.=.$.u.p.7.u.p.=.$.6.6.$.=.6.$.$.6.=.$.] D D D D 6 2 n.1X;Xw.%.%.",
"&.%.%.%.Z S %.%.%.%.b f f f j Z 6.u.u.7.7.6.7.7.u.7.6.7.u.7.6.*.$.X.=.6.=.=.6.$.X.$.$.X.$.$.X.X.$.X.] D D D D D 2 * 3.1XG.&.&.&.",
"%.} [ o.S Z } %.%.%.%.o.2     q D *.6.X.] D X.$.6.$.D $.6.$.X.X.X.X.D D X.X.D X.X.D D X.] D D D D D D D D D D D 4 = b.#Xe.&.&.%.",
"%.%.[ [ ' Z } %.%.%.%.%.Z v b j 6 8 0 8 6 6 8 8 0 8 6 8 0 8 8 8 8 8 6 6 8 8 6 8 8 6 6 8 6 6 6 6 6 6 6 6 6 6 6 6 n F r.G.&.%.%.%.",
"%.%.} [ o.' } %.%.%.%.%.%.%.&.m & $ $ $ $ $ $ $ $ $ & % $ $ % % $ $ $ & % % % - - - - - - - % $ $ $ % $ $ $ $ % F -.w.B.%.%.%.%.",
"%.%.%.%.&.-.%.%.%.%.%.%.%.%.&.B.3.O.@.O.@.@.O.@.@.@.B.3.O.@.2.e.<.;.o.n.J.C.I.+XI.C.m.C.I.OXF.f.<.>.<.<.@.O.O.@.o.%.m.A.} %.%.%.",
"8.9.,.%.%.9.-.%.%.%.&.%.%.%.w.).w.-.,.,.9.9.-.,.9.-./.l.-.8.t.,.e.t.9.`.3X2X=X^.x.S.h.h.z.^.#X=X[.x.9.h.d.t.,.-.w.A.`.`.o.} %.%.",
"&.&.,.&.%.8.t.-.&.-.%.} %.>..X(.} %.&.,.8.9.-.,.8.8./.l.-.t.,.-.-.,.h.-X3X_.h.h.x.j.a.a.h.k.k.l.(.@XR.e.t.8.-.V.`.B.@.y.r.o.%.%.",
"%.%.&.&.%.&.9.-.e.e.>.r.m.<.n.V.r.<.y.A.G._.`.D.l.t.`.G.8.h.-.-.-.8.j.<X#Xh.t.h.h.a.a.a.h.h.h.,.-.g.@X_.d.q.Z.D.r.o.Z ' 1.V.e.&.",
">.&.%.%.>.w./.G.V.D.@X;Xb.S Z } r.r.>.w.f.Z.XX$X;X=X2X*Xk.z.q.-.8.9.R.;Xl.t.t.8.8.t.9.a.h.t.d.,.-.8.j.#X;X-XA.o.} } Z Z S b.OXC.",
"*X(.G.A.(.`.[.Z.>.} b.G.[ Z ' } } } ' } -.-.-.q.f.D.$X1X^.z.k.t.,.8.`.`.-.-.-.-.-.-.8.t.e.t.,.-.-.8.9.g.2X;X;.Z S [ Z S } %.).1X",
"1X%X(.N.w.d.h.-.%.' } %.Z ' } S Z ' o.%.9.,.-.&.&.-.d.#X[.8.,.t.-.-./.A.-.-.&.&.&.-.9.t.t.d.e.-.-.-.-.<.%X.X} S S [ [ } %.&.g.1X",
"b.<.&.%.%.-.t.&.%.o.o.[ ' o.S Z Z Z [ -.h.t.-.-.8.e.k.v.@Xf.-.e.,.-.W.V.&.&.%.%.%.&.8.t.8.-.q.<.-.-.-.&.(.(.%.o.} %.%.%.%.%.y.oX",
"%.&.&.%.%.&.t.&.%.%.q.o.o.' Z Z Z Z S &.h.t.-.-.,.t.e.8.`.D.-.t.,.&.D.G.%.%.o.o.%.%.,.e.-.-.-.-.-.-.-.&.J.G.%.%.%.&.%.%.&.%.N.w.",
"%.&.&.%.%.%.8.-.%.%.N.e.} Z Z Z Z S } &.q.h.t.-.q.-.-.-.N.XX<.q.q.&.Z.G.%.} [ } } [ %.q.-.-.-.-.-.&.&.%.A.G.%.%.%.>.-.e.&.w.N.&.",
"%.&.&.&.%.%.-.9.&.%.F.f.&.' ' ' } o.&.&.-.q.t.8.-.-.-.&.w.%Xw.&.-.&.f.G.&.%.%.%.[ S o.8.,.-.-.&.&.o.[ ' 1.).>.%.%.%.9.t.w.D.<.%.",
"%.%.%.%.&.%.%.,.8.,./.x.9.&.%.%.%.&.%.&.-.-.-.-.-.-.-.&.<.`.w.&.-.-.w.).<.%.%.%.} } %.-.-.&.%.} S ' S Z ;.*XB.%.%.%.-.x.XXm.%.%.",
"%.} ' [ %.%.&.%.&.y.oXr.,.8.%.%.&.&.&.&.&.&.&.&.&.&.&.%.-./.w.&.&.&.e.@Xy.%.%.&.%.%.%.%.-.%.[ Z Z S ' ' N.-X@Xg.>.<.f.@X`.8.&.%.",
"o.} ' Z } %.%.%.&.<.oXw.&.-.%.%.&.&.%.%.%.%.%.%.%.%.&.%.<.@Xw.%.%.%.d.=XG.%.%.&.%.%.%.%.-.} Z Z Z Z S n.`.1.;.f.b.A.-X).<.e.&.&.",
"S S } S S %.%.%.%.<.H.<.&.&.%.%.%.%.%.%.%.%.} } } %.} } r.*Xw.%.&.-.j.<X%X<.%.&.&.%.%.&.-.' Z Z Z Z 1.#Xb.Z Z [ S [ C.N.&.8.&.o.",
"Z Z [ [ Z } %.%.%.<.N.&.%.} [ o.&.%.%.%.%.} S Z S S S S F.1X/.l.f.f.).2X2XoXw.&.&.%.%.-.%.' Z Z Z ' (.G.} S Z S S Z @.G.y.9.&.' ",
"Z Z [ S Z } %.%.%.w.B.%.' Z Z ' %.%.%.%.%.} Z Z Z S ' ;.OX.XG.D.A.G.XX=X1X@XD.m.>.%.&.&.%.[ Z Z Z 3./.@.S S Z S ' Z ' b.S.9.%.' "
};
