/* XPM */
static char *f1cb0a37a2be4b8de564cd4165a09b71nLdz323w36MigJ8K[] = {
/* columns rows colors chars-per-pixel */
"64 64 246 2 ",
"   c #1B3E3B",
".  c #34232B",
"X  c #3E2731",
"o  c #392935",
"O  c #4B2B2B",
"+  c #452A33",
"@  c #562732",
"#  c #493639",
"$  c #4D3A3B",
"%  c #513738",
"&  c #543C3B",
"*  c #593E3C",
"=  c #6A333C",
"-  c #7A373D",
";  c #2E513C",
":  c #396A3C",
">  c #58463C",
",  c #63453E",
"<  c #436932",
"1  c #3C3444",
"2  c #4A3A45",
"3  c #553D42",
"4  c #773C42",
"5  c #2A4C41",
"6  c #2C5343",
"7  c #335645",
"8  c #394F5D",
"9  c #3B6848",
"0  c #1F5566",
"q  c #0D4E76",
"w  c #0B4E79",
"e  c #0B517D",
"r  c #15547C",
"t  c #2D5773",
"y  c #395A77",
"u  c #396C72",
"i  c #564243",
"p  c #5B4445",
"a  c #5D4B4A",
"s  c #494956",
"d  c #584D58",
"f  c #4F5455",
"g  c #654645",
"h  c #624C4B",
"j  c #694E4D",
"k  c #794448",
"l  c #6A534C",
"z  c #73544C",
"x  c #6E4B56",
"c  c #695657",
"v  c #735553",
"b  c #795A58",
"n  c #497252",
"m  c #7B6256",
"M  c #465567",
"N  c #595769",
"B  c #4F5670",
"V  c #6A5A63",
"C  c #785B65",
"Z  c #516D6E",
"A  c #4A6479",
"S  c #536676",
"D  c #766765",
"F  c #726E73",
"G  c #89383F",
"H  c #B66A3F",
"J  c #853942",
"K  c #883B44",
"L  c #8B3B44",
"P  c #923E48",
"I  c #874549",
"U  c #92454B",
"Y  c #835A55",
"T  c #905050",
"R  c #945756",
"E  c #9B585B",
"W  c #976A4F",
"Q  c #876457",
"!  c #976958",
"~  c #9A735B",
"^  c #B86D43",
"/  c #B26D4D",
"(  c #A67459",
")  c #B77A58",
"_  c #866663",
"`  c #89786B",
"'  c #997565",
"]  c #97736D",
"[  c #826B75",
"{  c #89767A",
"}  c #AF7167",
"|  c #A9766A",
" . c #AC7974",
".. c #C37A52",
"X. c #C17E77",
"o. c #7D8375",
"O. c #BD815B",
"+. c #87806A",
"@. c #A7826C",
"#. c #B98567",
"$. c #A98777",
"%. c #B68977",
"&. c #B48C74",
"*. c #BA9279",
"=. c #C5855A",
"-. c #C9875A",
";. c #CD8A5D",
":. c #D18D5E",
">. c #C98C65",
",. c #D18E66",
"<. c #D29267",
"1. c #C78C72",
"2. c #C79678",
"3. c #D49A73",
"4. c #D59D77",
"5. c #DAA27C",
"6. c #E0A075",
"7. c #0C5582",
"8. c #0C5985",
"9. c #095788",
"0. c #0D5D8A",
"q. c #185C83",
"w. c #0D5F90",
"e. c #295E85",
"r. c #0D618E",
"t. c #13638D",
"y. c #1C6489",
"u. c #0D6593",
"i. c #0E6996",
"p. c #0E6C99",
"a. c #126693",
"s. c #146A95",
"d. c #1B6D96",
"f. c #126D9A",
"g. c #0E719E",
"h. c #14739D",
"j. c #1B749C",
"k. c #1C779C",
"l. c #27688B",
"z. c #396987",
"x. c #2F708E",
"c. c #277598",
"v. c #39799A",
"b. c #0F73A2",
"n. c #0F79AA",
"m. c #1376A2",
"M. c #1479A5",
"N. c #1979A4",
"B. c #1A7BA4",
"V. c #127CAB",
"C. c #0E7EB1",
"Z. c #107DB0",
"A. c #277CA4",
"S. c #347DA3",
"D. c #436885",
"F. c #4F7389",
"G. c #477B98",
"H. c #757985",
"J. c #72768D",
"K. c #437EA1",
"L. c #8C7983",
"P. c #348499",
"I. c #1A83AB",
"U. c #1C83AB",
"Y. c #1283B3",
"T. c #188BB6",
"R. c #1D92BB",
"E. c #2285AB",
"W. c #2784A8",
"Q. c #248AAE",
"!. c #3987A7",
"~. c #3590AF",
"^. c #248DB2",
"/. c #298EB2",
"(. c #2692B5",
"). c #2B94B5",
"_. c #2896BB",
"`. c #2C96B9",
"'. c #3799B9",
"]. c #349CBC",
"[. c #2EA1BF",
"{. c #38A1BF",
"}. c #548595",
"|. c #738D95",
" X c #4588A5",
".X c #4496AC",
"XX c #5693AE",
"oX c #4997B5",
"OX c #6A99AE",
"+X c #4DA1B7",
"@X c #69A5B7",
"#X c #7AA9B6",
"$X c #289EC3",
"%X c #34A3C3",
"&X c #3BA4C2",
"*X c #34ACCC",
"=X c #3AAAC9",
"-X c #41ACC9",
";X c #44B2CD",
":X c #4AB5CD",
">X c #54B3C7",
",X c #49B9D3",
"<X c #52BAD5",
"1X c #6EB6CF",
"2X c #5AB8E1",
"3X c #4FC2D9",
"4X c #56C5DA",
"5X c #5DCFE0",
"6X c #68D6E6",
"7X c #6DDAE8",
"8X c #75E2EE",
"9X c #918D91",
"0X c #879499",
"qX c #AD908A",
"wX c #B89785",
"eX c #B6A79A",
"rX c #8C97A8",
"tX c #A098AA",
"yX c #92AEB2",
"uX c #B1AFAB",
"iX c #C89B85",
"pX c #CA9588",
"aX c #DAA783",
"sX c #DDAB8B",
"dX c #D0A995",
"fX c #E1AF8C",
"gX c #DDABA5",
"hX c #C8B7AB",
"jX c #D7B8A3",
"kX c #B9C5B5",
"lX c #D9C3AB",
"zX c #CACDB8",
"xX c #DBCCB3",
"cX c #DDD2B8",
"vX c #E3C9B6",
"bX c #E5D6BB",
"nX c #8CB7C9",
"mX c #9AC5D0",
"MX c #AACFD8",
"NX c #92CDE3",
"BX c #D4D2CB",
"VX c #E4DBC7",
"CX c #E8CDD0",
"ZX c #ECE2CE",
"AX c #EBE4D5",
"SX c #D9E7E9",
/* pixels */
"w e r.e e r.u.u.u.B.-Xs.7.0.0.0.7.u.u.u.u.0.w w w 8.s.`.k.w w 7.7.7.u.E.&Xf.i.i.I.`.U.f.u.u.7.e h.).8.e e w e e 8.e 8.b.R.B.u.0.",
"e e i.0.0.u.u.u.u.^.4X%Xm.p.i.i.0.r.u.u.u.8.w w w 0.U.k.e w w w 8.e r.-X].u.u.u.u.h.E.`.`.].'.'.%Xt.e 7.e 7.0.r.u.i.b.b.B.E.f.u.",
"0.u.b.b.i.u.u.u.M.T.B.Q._.M.r.7.r.u.u.u.u.8.w w e j.k.8.t.0.e w e r.).,Xh.u.u.8.0.u.u.h.B.].<X7X-Xu.0.7.7.0.e e 0.i.i.u.u.U.E.i.",
"f.i.b.i.p.b.B.`.).s.e 8.h.M.m.0.0.i.u.u.u.0.e e E.:X).).).U.B.B.B.`.6X&Xu.u.0.7.i.u.u.u.u.u.B.4X=Xn.b.i.0.7.7.0.u.i.u.u.u.u.E.).",
"=X].%X{.].%X%X/.f.8.w 8.0.8.0.B./.U.V.B.B.E.E.U.<X,XU.a.7.e 8.t.a.E.<X`.u.u.0.r.i.u.i.g.i.u.u.-X;Xh.i.u.u.u.u.u.i.u.i.u.u.u.u.].",
"&XU.U.).U.B.f.0.u.u.0.0.0.0.w 8./.-X^.(._.V.f.h.(.Q.w w w w w w w 7.I.I.b.b.b.u.7.0.u.m.V.d.u.Q.@XS a.u.u.u.u.i.u.u.i.u.u.u.u./.",
"`.u.u.i.i.u.8.w 7.0.u.u.0.u.0.0.u.I.M.u.p.i.8.e B.E.e w w w w w w 0.I.h.u.p.i.u.r.i.a.u.D.F x.B.|.' l.u.u.i.i.u.u.u.u.i.u.u.u.f.",
"(.f.u.u.i.u.7.w w 7.0.0.u.p.i.i.u.f.U.f.i.r.e e B.s.7.7.e w w w e u.U.f.u.u.u.u.u.z.F x.` <.$.F.|.>.z.d.s.i.u.u.u.u.u.u.i.u.u.i.",
"`.B.u.u.u.p.r.7.8.e w e 0.p.i.u.i.u.B.I.i.i.8.0.B.e w 7.0.w w e 0.B.=Xh.u.0.0.0.t.F ..#...,.<.` F <.&.@.S i.i.u.u.u.u.u.i.u.0.r.",
"^.`.u.u.u.u.p.u.8.w w e 0.p.i.i.p.i.h.^.h.p.i.M.B.7.w e r.e 7.0.u.B.<Xj.0.w w e V / ^ ..^ ....) / O.1.#.S u.u.u.i.i.u.i.0.7.8.0.",
"B.:Xf.r.u.i.m.g.u.0.0.0.u.p.i.p.p.p.p.(.M.i.h._.M.u.8.8.u.r.u.u.u.B.:Xh.0.8.0.0.z.Q ^ ^ ^ ^ ^ ../ |.P.l.j.u.u.u.u.u.i.i.e w w 7.",
"h._.h.r.0.u.i.b.i.u.u.u.p.p.p.p.p.p.p.V.V.b._._.b.p.i.p.p.i.i.u.u.^.].i.u.u.u.u.u.z.W H ^ ^ ^ / D '.=Xh.p.p.u.u.u.u.u.i.e w w w ",
"U.B.^.u.u.i.p.b.i.u.u.p.g.p.p.p.p.p.i.^.$XR.$Xh.i.p.p.M.p.p.p.i.i.].U.u.u.u.u.u.u.i.z.D W / Q S r j.B./.B.i.u.u.u.u.u.u.8.w w w ",
"j.7.Q.B.e r.n.b.u.i.b.b.p.p.p.p.p.p.h.;X4X5X$Xb.p.p.g.p.p.p.p.i.B.:Xj.0.e 7.u.u.u.i.i.z.S b S l.7.h.r.E.;XB.u.u.u.u.u.u.0.w e s.",
"7.w t.[.t.w i.b.i.b.Z.p.i.i.p.p.p.i.^.;X(.=X*XT.b.M.h.p.p.i.i.i.U.,Xa.w w w 0.u.i.p.f.A b k v y 0.E.a.r.(.=X`.B.u.u.u.u.r.0.B.`.",
"w w w j.^.0.0.b.g.oX@X!.f.u.i.p.p.B.=XT.b.V.*X,XR.V.g.p.i.u.u.i.`.].7.e e e r.i.p.g.i.d.x G x r 0.U.U.r.r.B.].%X`./.I.h.Q.&X!.D.",
"t.e w e (.`.f.p.h.#XbXcXyX Xh.p.U.=X_.V.V.Z.Y.*X3X(.n.b.p.u.u.i.(.U.8.8.7.8.u.u.i.i.f.z.k L k M q.M.(.9.0.u.u.f.B.B.U.Q.oX@XXXZ ",
").U.0.e Q.].`.Q.B.^.yXvXbXBX#X&X*XR.Z.Z.Z.Z.Z.T.$X,X,XR.b.g.g.i.(.(.7.w w w 0.u.i.f.z.c I I ! I N z.~.q.0.f.f.a.a.a.l.z.v.W.P.9 ",
"0.B.^.].E.8.B.].;X*X=XmXcXvXbXBX>XY.C.Z.Z.Z.Z.R.$X$X,X3XI.i.b.V.%X].9.w w w 0.i.f.S b U U Y ~ ! b F. Xz.z.D.D.z.D.z.l.d.V.P.u 9 ",
"u.8.s.=X^.r.p.p.U.T.Y.(.yXxXcXAXVXnXG.V.Z.Z.Z.T.R.T.Y.%X,X].%X,X<X%Xa.w w w 7.x.S Y U T ( ) Y ( ( D F.t q.a.d.f.s.a.i.b.c.u 9 7 ",
"u.i.u.B.`.p.p.p.b.g.b.n.^.yXAXVXAXZX .S.C.Z.Z.Y.Y.Z.V.V.=X8X:X^.B.B.U.0.w r M v R / ! ! =.=.( Q ) ( Q c y s.p.p.i.i.p.M.x.u 5   ",
"u.u.p.p.`.B.i.p.m.b.n.Z.C._.mXZXAXvX} |.T.C.n.Y.Y.V.m.p.V.;XU.i.u.w.f.W.y d T / =.! Q ) =.-.-.! ! O.=.( m S l.f.p.b.V.x.u : ; ; ",
"u.u.i.p.U.U.i.p.n.b.V.Z.Y.T.`.uXjXpXX.pX0XK.A.W.B.m.f.p.p.M.U.h.s.l.y V Y W =.;.( Q ) -.=.;.:.;.( ! O.;.) ! c S x.i.d.n n ; ; ; ",
"u.u.i.p.I.^.i.p.b.p.n.C.Y.T.T.F.wXjXpXgXvXyXv.v.D.D.z.x.l.l. XS N V Y ' 2.5.5.#.Q ) -.-.-.:.:.;.-.! Q ) -.=.) ! V D.z.n < : 5 ; ",
"u.u.i.V.(.B.i.b.g.b.V.Y.T.T.T.K.yXjX1.xXbXBXrXc.f.f.j.x.z.A V b Y ! ( <.5.4.| Q #.aX<.,.;.;.:.:.;.>.~ Q #.,.3.4.( Y b v < < ; 5 ",
"u.i.p.h.(.h.p.b.b.b.V.Z.Z.Z.C.S. X0XdXbXxXhXwXA l.z.S V V b ! #.>.3.4.4.dX$.' #.=.>.4.sXsXaXsXsXsXaX<.! ' *.4.,.-.=.#.&.' z l f ",
"7.u.0.Q.].i.p.g.p.p.p.b.n.V.Y.!.G.#XzXcX$.b b b b Q ! ( ) 2.aXaXaXsXaX*.' ! 2.sX4.,.-.;.,.,.<.<.,.;.:.;.( ! ( 2.aXsXaXsX<.#.2.@.",
"7.8.e ].E.0.r.u.i.i.p.p.g.V.Y.B.F.@X1XxXwX .eX$.#.1.sXaX6.4.3.3.iXdX@.! #.sX4.<.aXaXaX4.3.,.,.,.:.:.,.3.sX2.| ] wXfX4.5.sXfX6.,.",
"0.7.E.,Xj.7.e 8.8.u.p.p.p.b.g.d.y v.!.qXX.jXbXlXhX9X*.5.5.aX5.iXwXqX' | #.3.5.sXsX3.3.5.sXsXaXaXaXaXsXsXsXsX5.' ' wXiXiX2.#.#.@.",
"M.(.4X4Xh.e w w e 0.i.p.b.M.n.XXrXyXA.G.hXxXxXVXBX|.OX|.|.] | $.$.&.&.&.$.&.#./ ] aXaX5.3.3.3.3.3.3.5.sXfX3.#.Y I R | $.$.` f 7 ",
"(.(.&X=Xs.7.w w w 7.u.m.V.b.b.1XSXSXA.f.yXvXVXZXvX9XA.h.).F R | *.*.&.*.&.&.R J - I >.4.5.5.5.5.fXsX5.2.#.| Y - - L U R E Y 7 6 ",
"r.e a.E.0.0.7.w w w u.V.p.p.p.!.yXOXt.9.OXVXZXVXdXhX!.u.B.9XI | *.*.&.$.g & % = L J R ! ( ) ) ) #.#.#.@.k J L J G L U R } Q 7 5 ",
"7.7.8.B.7.7.e e w e i.b.p.p.i.h./.s.h.U.oXxXxXlX .xX#XI.W.9Xc ` 2.2.&.@.s o 1 + = P L J L I I I T wXwXR J L L J J J U } } Q 6 6 ",
"e 8.7.u.e 7.e 7.e e u.i.p.p.i.Q.%X(.(.(.!.hXjXX.dXxXmX].:X0XB F iX2.&.*.N N B 2 . @ x I P L I T $.dXE J L P U L J P T $.wX` 7 7 ",
"w 0.8.h.8.w 7.8.0.0.u.u.i.i.h.{./.t.0.p.l.%.pXdXbXxXBXW.j.uXBXBXdXiX*.*.N s M + . M XXXXd + F uXtXhX' J L P U U P P P E wX` 6 5 ",
"8.0.0.Q.A.w w 8.i.u.u.u.u.h.^.j.e w e r.r L.lXcXcXZXAXv.d.tXBXhXiXiX*.&.# . o . . S #X#Xd . 0XSXuXBX9X4 J J P P P U L R } Q ; 7 ",
"u.0.i.&X<Xh.0.0.u.u.u.u.h.].s.w w w 7.e 7.}.VXVXAXAXvXF d.L.L.] @.&.&.&.d 2 s o O ) gXgX/ O N 0XF 9XD O J L L P L J I |  .Q ; ; ",
"u.u.V.<X8X4X/.f.i.u.i.E.<X{.e w w w 7.w 7.}.cXbXVXcXjXH.d.{  . .#.*.*.&.9XH.0X2 b 0XgXgX0Xj . o 1 i & . + 4 L L J G T  . .Q ; ; ",
"p.B.;X8X8X7X4X%XQ.Q.&X6X8X&Xe w w e 8.e w F pXdXdXpXdX|.d.{ } } 1.2.*.&.N s M F SX<XhXhX2XBX3 s N + + X X X @ = J J ! %.qX` 6 7 ",
"].=X3X;X{.Q.B.h.h.B.).+X>X<XE.7.w e 8.w e N  .pXdXjXlX9XA.9X . .2.2.*.*.# . . qXAXnXAXSX2XCXC d B o X X X X X + 4 U ! $.$.+.; n ",
"B.h.M.p.u.u.i.u.u.u.l.V b S E.m.7.e 0.w e l.qX1.dXdXpXeX1XqXwXwX*.%.$.$.j 3 s 9XvXCXCXMX0XdXqXd N p 3 + X X X X m %.z b b D 5 6 ",
"u.0.0.0.8.u.i.u.u.u.y Y Y d q..XXX|.OX|.rXyXzXlXjXjXxXZXbX%. .} ! v z b _ _ oX<X1X1X2XXX_ _ _ _ _ _ b + X X X X Q *.z b Y m f Z ",
"i.r.0.u.7.8.u.i.u.i.y I I x v.~.>X@XnXkXcXxXVXAXAXAXVXcXjX . .} z b b g h d oX2XNXNX2XG.h h h a h h 3 + X X X X Q 1.P Y b ] kXzX",
"i.u.u.u.w e r.u.u.u.M I v 4 B e.G. XXXoX@X0X9XuXuXeXtX9X9XqX .} T Y k - h d +XNXNXNXNX}.a a a a a a + X X + + @ I } G J I  .xXjX",
"u.0.8.r.e w 0.u.u.u.t k J g e.y.~. XG.F.J.{ { { { [ [ F [ L.L.E U I - - 4 h OXMXmXNXNX}.a h h h h h # @ @ @ @ @ Y *.k I k _ dXjX",
"u.u.8.8.7.w 0.u.u.u.t v k s t z. XG.D.z.D.H.{ [ [ [ C D [ 0X|.H.T I 4 - g k V J.tXrXJ.x 4 4 k 4 k 4 = @ @ + + X Q *.j v I { eXeX",
"u.u.w.8.t.r q.l.y M d v v g j j c j j j h c H.9XH.H.F F F 0XJ.H.v Y g p a a a F.1X@XN h h h h a h h & $ $ $ $ # b @.j v v { D j ",
"t.q.t M M d d c j h z v v z v j j v j j j j c V V c c h h c c v v D z z j h j j c c h h h j h a h j h h h h h j z Y Q b Q Q j j ",
"8 i * * , * & g > * Y ~ ~ W , , p g * p * & * & % * * g g * g g ~ ~ ( z * * * * g * * % % * & % & p g * g g & & > , W ( ~ , * * ",
"s i # 3 3 i $ p & # * Y Q , $ i i & $ & $ $ & & & i i & & $ i % z Q z % $ i a a p $ & p 3 # # # # > i 3 p h i i a * j v z > > i ",
"y.q.q.q.q.q.d.y.l.l.D Y b m A c.x.l.c.P. X.XoX!.c.c.~.P.y.j.y.A Q b Y |..Xc.c.A.c.d.d.d.d.j.j.y.y.l..X.Xc.x.!.P.y.y ~ ! ~ |.l.l.",
"f.i.i.u.f.B.%X].(._.}.~ ~ D r r.B.V.f.B.I._.;X<X4X3X7X3XT.R.b.d._ ( o.>XR.I.V.b.b.n.n.Y.Y.V.Y.g.p.b.T.,X5X3X_.u.0.8.c Q Q v.;X`.",
"4X&X].`.&X=X*X(.f.w.t c j s e r.0.0.7.0.p.p.p.m.U._.<X6X$XT.T.h.d v Z {.p.p.p.p.p.p.b.V.M.V.g.p.p.b.b.U.7X4Xa.w e 7.s c D z.=X6X",
"6X<X&X^.B.I.Y.p.u.8.0 M f s 8.e w 7.r.u.b.g.p.i.p.p.Y.,X=Xb.g.V.A f }.Q.p.p.i.i.i.p.b.V.V.Y.M.p.p.p.p.h.<X-X0.e e y.0XF c z.U.6X",
"E.h.i.u.u.p.V.i.u.a.G.D.M 8 e w w w 8.p.Y.V.g.p.b.M.T.R.;XI.p.E.|.Z }.c.p.i.u.u.u.i.b.V.b.p.m.h.p.p.p.i.&X&Xu.0.0.d.|.{ a t B.;X",
"u.i.i.u.u.i.V.i.u.S.OX|.Z 8 q w w w e i.Y.V.p.p.g.V.M.b.=X`.f.'.0Xu P.~.u.u.r.r.u.u.g.M.p.p.p.p.p.p.p.i.].].u.u.u.A.|.V Z y.^.B.",
"u.i.i.u.u.u.b.p.u.c.XX#X}.0 q w w e 0.i.m.Y.V.p.m.p.p.p.^.-Xh.W. XG.oX].u.0.8.0.0.8.u.m.p.p.p.p.p.i.i.u.`.].u.u.u.f.XXZ u j.^.i.",
"u.i.i.i.u.u.p.b.i.u.'./.!.l.7.7.0.r.i.i.p.m.V.b.p.p.p.i.B.<XN.i.p.p.E.].i.u.u.u.8.e r.b.g.p.p.i.i.r.8.7.j.=Xf.u.u.u.M.A.S.].h.u.",
"u.u.u.u.i.u.u.g.b.g.%XT.V.i.u.u.u.i.u.i.p.p.p.p.p.p.p.i.h.=XB.i.p.p.B.&Xh.u.u.u.0.0.u.p.p.i.u.0.e 7.e w a.3X/.u.u.u.p.T.-XQ.u.u.",
"u.0.7.8.u.u.i.u.i.V.;XB.g.b.u.u.i.i.i.i.i.i.i.i.i.i.i.u.p.%XB.u.i.i.M.,XB.u.u.i.u.u.u.u.p.u.8.w w e 7.7.^.4X,XU.f.h.U.,X=Xb.i.u.",
"r.0.7.w 0.u.u.u.i.h.;XB.i.p.u.u.i.i.u.u.u.u.u.u.u.u.i.u.h.,XB.u.u.u.I.3X].u.u.i.u.u.u.u.p.0.w w w w e Q.=Xj.a.U.E.`.4X=Xh.M.i.i.",
"e e 0.e e u.u.u.u.h.[.h.i.i.u.u.u.u.u.u.u.u.0.0.0.u.0.0.B.4XB.u.i.p.U.5X<Xh.u.i.i.u.u.i.p.7.w w w w j.,XE.w w 8.e 8.'.^.i.b.i.r.",
"w w 8.8.w 0.u.u.u.B.^.i.u.0.8.r.i.u.u.u.u.0.e w e e e e '.6X%XT.I.U.=X7X7X;XB.i.i.u.u.p.u.7.w w w 7.&X].0.e w e e w t.].V.b.i.7.",
"w w 8.e w 0.u.u.u.h./.u.7.w w 7.u.u.u.u.u.0.w w w e 7.a.:X-X].`.`.].-X3X6X,X`.Q.f.u.i.i.u.8.w w w k.%Xt.e e w e 7.w 7.E._.n.u.7."
};
