/* XPM */
static char *fd2d7123b7314c2dfd7475c1765f8f0027kD8PzoJlFvaATf[] = {
/* columns rows colors chars-per-pixel */
"64 64 213 2 ",
"   c #0B4E79",
".  c #0B527D",
"X  c #18587F",
"o  c #775451",
"O  c #49677A",
"+  c #57717E",
"@  c #78777A",
"#  c #CF370D",
"$  c #E4390C",
"%  c #B2411E",
"&  c #944D3B",
"*  c #AD472E",
"=  c #D9461B",
"-  c #E94718",
";  c #F24C19",
":  c #F7521F",
">  c #D14E26",
",  c #CC542F",
"<  c #C55939",
"1  c #D95332",
"2  c #E84F25",
"3  c #FE5621",
"4  c #F95B2A",
"5  c #F66334",
"6  c #9A6E63",
"7  c #8E7D77",
"8  c #D86749",
"9  c #C96D51",
"0  c #CC6F53",
"q  c #EE734C",
"w  c #C87A62",
"e  c #DB7B62",
"r  c #8D807E",
"t  c #9C837B",
"y  c #A1877D",
"u  c #B58677",
"i  c #F3805C",
"p  c #C88B79",
"a  c #DA8B73",
"s  c #EB8E71",
"d  c #0C5582",
"f  c #0C5986",
"g  c #0D5D8B",
"h  c #125E89",
"j  c #245F81",
"k  c #0D618E",
"l  c #13648D",
"z  c #1C678D",
"x  c #0D6593",
"c  c #0E6996",
"v  c #0E6C99",
"b  c #126691",
"n  c #136B95",
"m  c #1B6D95",
"M  c #126E9A",
"N  c #0F719E",
"B  c #13739D",
"V  c #19749D",
"C  c #1C799E",
"Z  c #2A688B",
"A  c #246E93",
"S  c #2C7698",
"D  c #337B9C",
"F  c #0F73A3",
"G  c #0F78A7",
"H  c #0F77A8",
"J  c #0F7AAC",
"K  c #1376A1",
"L  c #1977A0",
"P  c #1379A5",
"I  c #1A7BA4",
"U  c #1077A8",
"Y  c #117CAB",
"T  c #1B7EA9",
"R  c #0E7DB0",
"E  c #107EB0",
"W  c #207EAB",
"Q  c #416E87",
"!  c #4D7A90",
"~  c #687B85",
"^  c #727C80",
"/  c #1D81A7",
"(  c #1381AD",
")  c #1C83AB",
"_  c #1E89AE",
"`  c #0F81B3",
"'  c #1284B3",
"]  c #1A85B1",
"[  c #148AB6",
"{  c #1C8BB4",
"}  c #148CB9",
"|  c #1B8DB9",
" . c #1591BB",
".. c #1D92BC",
"X. c #2280A6",
"o. c #2285AA",
"O. c #2A86AA",
"+. c #2389AD",
"@. c #3C86AA",
"#. c #248DB2",
"$. c #2188B4",
"%. c #298EB2",
"&. c #368BB2",
"*. c #2591B5",
"=. c #2B94B6",
"-. c #2495BB",
";. c #2C96B9",
":. c #2598BE",
">. c #2C99BB",
",. c #3394B3",
"<. c #3296B9",
"1. c #339CBC",
"2. c #3B9FBD",
"3. c #2EA1BF",
"4. c #38A1BF",
"5. c #5A8998",
"6. c #72848D",
"7. c #658492",
"8. c #4085A6",
"9. c #5391AE",
"0. c #4697B8",
"q. c #5998B6",
"w. c #6697A9",
"e. c #6D95A9",
"r. c #69A3B8",
"t. c #75A6B8",
"y. c #7CB1BB",
"u. c #259CC2",
"i. c #2B9DC2",
"p. c #329EC1",
"a. c #2DA3C5",
"s. c #2BA5C7",
"d. c #34A3C3",
"f. c #3AA4C3",
"g. c #3CA9C6",
"h. c #35A7C8",
"j. c #35AACB",
"k. c #3BACCB",
"l. c #3EB2CE",
"z. c #3DB3D0",
"x. c #43A8C4",
"c. c #41AAC6",
"v. c #41AECA",
"b. c #58AAC2",
"n. c #44B2CD",
"m. c #49B6CF",
"M. c #58B5CD",
"N. c #43B6D2",
"B. c #49B6D1",
"V. c #45BAD4",
"C. c #4CBBD4",
"Z. c #4BBED8",
"A. c #51BCD4",
"S. c #66B2C5",
"D. c #4EC2D9",
"F. c #53C0D6",
"G. c #53C4DA",
"H. c #5AC6DA",
"J. c #55C8DC",
"K. c #5CC9DD",
"L. c #73C4CF",
"P. c #60CADD",
"I. c #5FCEE1",
"U. c #5FD0E1",
"Y. c #60CFE2",
"T. c #63D2E3",
"R. c #6BD8E7",
"E. c #71DEEA",
"W. c #75E3ED",
"Q. c #79E5EE",
"!. c #7EE8F1",
"~. c #8A8483",
"^. c #9C8981",
"/. c #959794",
"(. c #A48C83",
"). c #AE978F",
"_. c #809EAF",
"`. c #A19FA0",
"'. c #8AA5B3",
"]. c #8EA8B2",
"[. c #9CADB6",
"{. c #99B6BD",
"}. c #B8ADA9",
"|. c #A6B3B8",
" X c #B0B0B1",
".X c #BAB8B8",
"XX c #CD9B8B",
"oX c #D19789",
"OX c #DCA08E",
"+X c #D6A596",
"@X c #E3A18B",
"#X c #E3AA98",
"$X c #C7ADA5",
"%X c #D8B7AD",
"&X c #C2B6B2",
"*X c #C9BBB7",
"=X c #C3BCBA",
"-X c #D6BCB4",
";X c #CBC1BE",
":X c #D7C3BC",
">X c #97B5C2",
",X c #A9BCC4",
"<X c #B4BDC2",
"1X c #92C4CF",
"2X c #B7C3C4",
"3X c #87F0F5",
"4X c #C3C5C6",
"5X c #CDC5C3",
"6X c #D6C9C4",
"7X c #D6C9C5",
"8X c #D7CCC9",
"9X c #D8CDC9",
"0X c #C3D4D2",
/* pixels */
"  . k . . k x x x I v.n d g g g d x x x x g       f n >.V     d d d x +.g.M x c / ;.) M x x d . B =.f . .   . . f . f F ..L x g ",
". . c g g x x x x #.J.d.K v c c g k x x x f       g ) C .       f . k v.1.x x x x B +.>.<.2.2.2.d.l . d . d g k x c F F L +.M x ",
"g x F F c x x x P { T +.-.P k d k x x x x f     . C C f l h .   . k =.B.B x x f g x x B T 1.A.R.v.x g d d g . . g c c x x / o.c ",
"M c F c v F I ;.=.n . f B P K g g c x x x g . . X.m.=.=.=./ L T L ;.T.f.x x g d c x x x x x I K.l.G F c g d d g x c x x x x o.=.",
"k.1.d.4.1.d.d.%.M f   f g f g L %./ T I L o.X./ Z.C./ b d . f l b o.A.>.x x g k c x c N x x x c.n.v c x x x x x c x c x x x x 1.",
"f.) { =.{ L M g x x g g g g   f %.c.#.*.-.T M B *.+.              d / ( F F F x d g x K Y c x +.Z.B x x x x x c x x c x x x x %.",
";.x x c c x f   d g x x g x g g x / P x v c f . L o..             g / B x v c x k x x x v P v B C.{ x x x c c x x x x c x x x M ",
"*.M x x c x d     d g g x v c c x M _ M c k   . T n d d .       . x { M x x x x x c x x x c N c f.d.v x c c x x x x x x c x x c ",
";.I x x x v k d f .   . g v c x c x I / c c f g I .   d g     . g L g.B x g g g g x c x x x c v ) g.K c c x c x x x x x c x g k ",
"#.;.x x x x v x f     . g v c c v c B #.B v c P I d   . k . d g x L A.V g         g c x x x x H B >.B c x x x x c c x c g d f g ",
"T m.M k x c K N x g g g x v c v v v v *.P c B >.P x f f x k x x x L m.B g f g f g x c x x x v G x =.T x v x x x x x c c .     d ",
"B >.B k g x c F c x x x v v v v v v v Y Y G -.-.F v c v v c c x x #.1.c x x x x x c c x x v F x d ,.c.B v v x x x x x x .       ",
"/ L #.x x c v F c x x v N v v v v v c #.u...i.B c v v P v v v c c 1./ x x x x x x c x x v x f g . V I %.T c x x x x x x f       ",
"V d +.I . k H F x c F F v v v v v v B n.J.U.:.F v v N v v v v c L m.V g . d x x x c x v x x . d d L k o.n.L x x x x x x g   . n ",
"d   l 3.l   c F c P Y v c c v v v c #.N.*.k.z.{ G P B v v c c c ) C.b       g x c c v x x x d . f o.b x *.g.;.L x x x x k g I =.",
"      C #.g g F N ( ( c x x c v v I j.{ G J j.V...Y N v c x x c >.1.d . . . k c v N x x x x d   g ) / k x I 1.d.<.%./ L +.f./ f ",
"l .   . *.;.M v v Y P c c v N N ) h.1.r.q.&.<.n.H.-.G F v x x c *._ f f d f x x c c c c c c .   d P -.f g x x M L L +.#.d.Z.;.C ",
"=.) g . +.1.>.+.K ( ' Y G ' ( :.j.0.>X7X5X4X,X,X1X1XM...F N B c *.*.d       g x c v c x x x g . . B -.g g c c x x x x c G ( T +.",
"k L #.1.o.f L 1.n.j.a.:.*.d.Z.R.n.2X%X8 +X#X:X9X8X9X0XH.( c K T d.1.f       f x c F c x x g d x x L *.k x c v c x x x c Y J F c ",
"x f n g.#.k c v ) { ] { ..{ d.I.P.,X%X2 2 4 s 9X9X9X9X1XC.,.p.V.Z.d.l       d v F c c x x g   f c P +.d d x v v x x c F v c c v ",
"x c x L >.v v v F v F Y E ' J } S.=XoX- ; : 5 #X8X8X9X*X/./.y.w.D D / l     d c F x c c c g . d g P +.d d x v v c c v F x x x x ",
"x x v v ;.I c v G F G E E ' ' R %.|.p $ $ : 3 q :X8X8Xe = 6 ^.t ~.~.S / n . d x H F v v v x k g g I +.f f x v v v F Y N x x x x ",
"x x c v _ { c v G F Y E ' [ [ ' ' b..X0 $ 3 3 3 s 7X9Xa - 8 t t t y @ z ) o.V v v v v v v c v c v >.( x g c v v c c v c x x x x ",
"x x c v ( #.c v G v H E ' } } } [ Z.{.< - : 3 3 4 #X:X1 - +X).+ @ @ 7 O f L >.*.I K G v c v B B *.F.L c x x v v c x c c x x x x ",
"x x c Y *.L c F N F Y ' } [ }  . .D.L.* # ; ; 3 3 q %X8 ; @X4XD z z Q Z g g v B ) d.j.p.<.| *.) ) n.V x x x v v v c c x x x x x ",
"x c v B *.B v G F G Y E E E E ' [ G.W.5.* 8 $ ; : 3 4 $ ; 5 %X[.m x x c v c v c c *.g.#.) K v c v d.) x x x c v v c x x x g f g ",
"d x g +.1.c v N v v v F G Y ' } } K.!.C.e.$X1 $ = = ; - ; e :X|.A c c v v v v v v I d.B c F F v c ;.v.K c x c v v c x x g .   . ",
"d f . 1.o.g k x c c v v N Y ' Y { D.d.*.r.}.XXoXp 0 9 , > 9 7Xt.+.#./ P N v v v v K d.P N ( Y v c P G.1.x x c v v c x c g       ",
"g d X.C.V d . f f x v v N G N v ] j.Y B 6.(.}.;X7X7X-X-X+XXX6X4X8./ >.i.#.v v F F ] l.] ' [ ' ( ( ( a.F.=.v c c v v c v x .     ",
"P *.J.H.B .     . g c v K P P v *.j.N m ~ y ).&X5X9X8X8X8X-X0 +X[.m I T d.h.{ v v ) d.Y G ' | u.' P G :.I.B.%.L B c v c c k d d ",
"*.*.f.g.n d       d x K Y K K F d.>.c A ~.t 7 `.=X5X5X8X8X-X, q :X].~.! 7.,.*.) { d.] F G G | | Y G G G p.E.!.P.k.1.>.( ) +.+.=.",
"k . b +.g g d       x Y N v v v d./ g Z ~.y ~ D e.w..X5X8XXX> : a 7X).y ~.A v ' Z.k.v F Y E { [ } E G G G p.Q.v.{ =.>.{ P n l l ",
"d d f L d d . .   . c F v v c B ;.M B 5.(.t ^ ,.1.1.{.*X7X+X# # = +X*X(.~ n v G a.-.Y ' .. .[ ' ' } E Y G ..T.) c c c c x .     ",
". f d x . d . d . . x c v v c +.d.*.*.*.6.t Z L / *.0.[..X=Xw 9 < 9 7X}.7.P F G a.:.Y ' [ ' Y } ' ' } } ' | R.#.c v v v c f     ",
"  g f B f   d f g g x x c c B 4.%.l g v Z @ O x c v N D D e.&X;X%X%X8X5X9.J ' [ u.d.G Y F K N Y } E }  .E :.W.1.c v v v v x d   ",
"f g g +.I     f c x x x x B #.C .   . k d j X x c B M c A ~.}.=X:X$X7X9X<X@.0.( [ j.[ R Y F N G ' ' } } ' B.3Xn.v v v v v c g d ",
"x g c f.C.B g g x x x x B 1.n       d . d . g v F N v v m ~.(.}.u % XX9X8X4X5Xq.R i.j.} ` J G [ u.Z.V.V.Z.Q.3XC.v v v v v c x x ",
"x x T A.W.H.%.M c x c +.A.4..       d . d d d c v v v v ! ^.(.(.r & * *X9X7X7X=X_.>XS.L.A.m.k.s.V.N.s.u.f.A.R.H.B c v v v c x c ",
"v L n.W.Q.R.H.d.+.+.f.T.W.c..     . f     f g c v v v v S w.w.6.O.S O w.oXp *Xs i a p .X2X|.y.t.b.&.$.] v B ;.H.=.v v v v x c c ",
"1.h.F.n.4.#.L B B L #.f.A.C.X.f   . f     g c v v v v F ( N.| Y J J ' ( o 6 [.).OXa w &X&X5X;X;X=X|.[.e.B c v #.l.+.c v c x L 1.",
"L B P v x x c x x x x x B L o.P d . g   . c v v v v v G l.T.a.....| ..' I Y &.&.r.w.'.{..X;X8X8X7X9X.X@.F N v c / d.I c v #.n.g.",
"x g g g f x c x x x x x x x d M V . f . x P v v v v N ..z.u.k.j.V.J.s.E R E R J U J T d.t.&X5X9X5X{. X8.F K N c x +.B.c.v.v.+.c ",
"c k g x d f x c x c c c c c v K :.M c v K N v v v v G s.:.H G ' [ k.z.E E E E Y G G Y k.#.'.*X7X>X$.9.W F v c c c v 1.E.H.L x x ",
"c x x x   . x x x x x x x c v c =...' F v v v v v c P k.( v N ' F P d.{ R E E E G G { D.| &. X;X5X9.R J F v F F F c / T.1.c c c ",
"x g f k .   g x x x x x v c x x <.| F v v v v v v v ] d.N c P ( v F *.u.J E E E Y Y -.I...J 9.t.'.'.E J G v G Y ' Y | Z.P c c x ",
"x x f f d   g x x x x c v x x B g.( v v v v v v v v :.>.v c Y Y F G ( u.[ E E E ' [ C.Q.:.J ' [ $.#.E Y G v G H Y P / 1.c x x x ",
"x x g f k d g x x x x x x x x T 1.N v v N v v v v v d.-.v c Y ' G G G i.u.E E :.a.C.W.3XD.| ' ' R ' ' Y F v v v v c L %.x x x x ",
"x x x x c v x x x x x x x x x ;.+.v N v F v v v v v d.| v v ' [ ( F F i.N.s.N.U.G.z.j.l.D.G.j.| ' E ' ( N v v N x x +.;.g x x x ",
"F G N x x G v x x x c x x x L g.B c N v G F v N F v d.| v F Y N P Y G k.!.R.D.a.| ..' R } s.N.D.l.} J ' ( Y v v L ;.j.k.k g x x ",
"c c N c x F Y v c v x g x M c.f.g x c N F G v N F F d.| v Y N v v N ' G.!.j.' E | [ E E ' [ [ { f.N.i.P Y F v *.k.%.l T I k x x ",
"x x c c x c G v K P M I +.B o.*.I B T ;.1.j.k.>.{ Y k.1.F ' v v v F ] T.V.' Y ' ' E E E ' ' ' N v ) N.h.( K -.>.I k   d V *.P c ",
"M c x x M L d.1.*.>.B.K.o..   g I I M L / -.v.Z.J.D.E.F.[  .K v K G i.J.| Y Y F F Y G E ' Y ( N v F ] Z.K.G.;.k g g     . o.m.,.",
"F.f.1.;.f.k.z.*.M g o.1.f   d g g g d g v v v K ) >.C.R.s. .[ Y N F k.k.v v v v v v F Y P Y N v v F G ) E.K.b   . f   . g x g.R.",
"R.A.f.#.L ( ' v x d g x   d g .   d k x G N v c c c ( V.l.F N Y v v d.;.v v c c c v G Y Y ( P v v v v B A.c.g . . f f g x c ) T.",
"o.B c x x v Y c x k k f d k .       f v ' Y v v F K [ ..N.) v P N v p.*.c c x x x c F Y F v K B v v v c f.f.x g g x x x x x T n.",
"x c c x x c Y c x x K k k d         . c ' Y v v N Y P F j.>.v Y N c >.1.x x k k x x N P v v v v v v v c 1.1.x x x c x x c x #.L ",
"x c c x x x F v x x #.P g         . g c K ' Y v K v v v #.v.B K K c -.1.x g f g g f x K v v v v v c c x ;.1.x x x v v G c L #.c ",
"x c c c x x v G c x <.( c d d d g k c c v K Y F v v v c L A.L c v c / 1.c x x x f . k F N v v c c k f d V g.M x x x G J L >.B x ",
"x x x x c x x N F N d.| G c x x x c x c v v v v v v v c B k.L c v v L g.B x x x g g x v v c x g . d .   b F.%.x x x v { v.+.x x ",
"x g d f x x c x c T n.I N F x x c c c c c c c c c c c x v d.L c c c P B.T x x c x x x x v x f     . d d #.H.B.) M B / B.j.F c x ",
"k g d   g x x x c B n.L c v x x c c x x x x x x x x c x B B.L x x x ( D.1.x x c x x x x v g         . O.k.V b / o.;.F.g.B P c c ",
". . g . . x x x x B 3.B c c x x x x x x x x g g g x g g I F.L x c v ] Y.A.B x c c x x c v d         V V.X.    f d f ,.#.c F c k ",
"    f f   g x x x B #.c x g f k c x x x x g .   . . . . <.T.d.{ / / g.E.E.n.L c c x x v x d       d f.1.g .   . .   l 1.T G c d ",
"    f .   g x x x V %.x d     d x x x x x g       . d b m.c.1.>.;.1.v.D.R.B.>.+.M x c c x f       C d.l . .   . d   d o.:.H x d "
};
