/* XPM */
static char *_61ddbf0d8db4f6ca89da6e9941d83afqy6F0mZxeAylLWZF[] = {
/* columns rows colors chars-per-pixel */
"64 64 233 2 ",
"   c #00060B",
".  c #010A0E",
"X  c #0A130E",
"o  c #030D12",
"O  c #040F16",
"+  c #051213",
"@  c #091415",
"#  c #061917",
"$  c #0A1B16",
"%  c #04131B",
"&  c #0C1519",
"*  c #071A1A",
"=  c #0A1D1A",
"-  c #111D1A",
";  c #0B221C",
":  c #0C271C",
">  c #14251B",
",  c #17291C",
"<  c #192C1E",
"1  c #1D301E",
"2  c #22361F",
"3  c #051721",
"4  c #051922",
"5  c #0A1D26",
"6  c #051D2A",
"7  c #131E22",
"8  c #0D2C22",
"9  c #0A2329",
"0  c #0C232C",
"q  c #122824",
"w  c #1A2C22",
"e  c #0F3224",
"r  c #0E302D",
"t  c #103626",
"y  c #173726",
"u  c #133C2A",
"i  c #092433",
"p  c #092736",
"a  c #0A2B3C",
"s  c #112C34",
"d  c #0D313C",
"f  c #153836",
"g  c #243B24",
"h  c #243927",
"j  c #15432D",
"k  c #18472D",
"l  c #174935",
"z  c #194C32",
"x  c #1A5234",
"c  c #1C5838",
"v  c #1D5C3A",
"b  c #2C4628",
"n  c #324E2B",
"m  c #35542D",
"M  c #39542F",
"N  c #395A2D",
"B  c #274C35",
"V  c #265537",
"C  c #345433",
"Z  c #3C5C32",
"A  c #1F633C",
"S  c #1F683D",
"D  c #22633D",
"F  c #216A3E",
"G  c #3E6233",
"H  c #405F32",
"J  c #416533",
"K  c #466A35",
"L  c #466B39",
"P  c #4B7236",
"I  c #4C743C",
"U  c #537B37",
"Y  c #537C3B",
"T  c #072E43",
"R  c #0B2E41",
"E  c #0B3243",
"W  c #0A3648",
"Q  c #0D354A",
"!  c #133B47",
"~  c #0B3B54",
"^  c #0A3D5D",
"/  c #113951",
"(  c #184546",
")  c #1C5546",
"_  c #0F4356",
"`  c #0D435C",
"'  c #144757",
"]  c #1C5B5F",
"[  c #2F524C",
"{  c #1E6241",
"}  c #216642",
"|  c #226D41",
" . c #3A6346",
".. c #247344",
"X. c #277347",
"o. c #257A46",
"O. c #267D49",
"+. c #297D4A",
"@. c #0C4462",
"#. c #0D4A65",
"$. c #0C4A6B",
"%. c #114B66",
"&. c #0E516E",
"*. c #195267",
"=. c #0C4C73",
"-. c #0B4E79",
";. c #0D5374",
":. c #0B527D",
">. c #0C5A7F",
",. c #125777",
"<. c #295C67",
"1. c #16617C",
"2. c #2F6B75",
"3. c #4F5D5C",
"4. c #4B764C",
"5. c #56823C",
"6. c #59843D",
"7. c #5B893E",
"8. c #63913E",
"9. c #278047",
"0. c #27814A",
"q. c #29844C",
"w. c #2A8C4E",
"e. c #2E8550",
"r. c #2B8D51",
"t. c #328753",
"y. c #2C9252",
"u. c #2F9856",
"i. c #319456",
"p. c #349859",
"a. c #598442",
"s. c #5D8C42",
"d. c #618E45",
"f. c #649443",
"g. c #679945",
"h. c #699D46",
"j. c #6A9C48",
"k. c #6DA346",
"l. c #6DA349",
"z. c #73A947",
"x. c #71A64B",
"c. c #74AB4A",
"v. c #77B14B",
"b. c #7AB44C",
"n. c #7CB94F",
"m. c #76AB52",
"M. c #7CB551",
"N. c #7EBA51",
"B. c #7DB55A",
"V. c #81BC53",
"C. c #87C455",
"Z. c #0C5582",
"A. c #0D5A85",
"S. c #0D5D8B",
"D. c #115D85",
"F. c #0D618D",
"G. c #186584",
"H. c #12638C",
"J. c #0D6593",
"K. c #0E6996",
"L. c #0E6C9A",
"P. c #126792",
"I. c #126A95",
"U. c #1C6F93",
"Y. c #116E9A",
"T. c #0F719E",
"R. c #1A7596",
"E. c #14739D",
"W. c #19749C",
"Q. c #1C799E",
"!. c #26748A",
"~. c #29778F",
"^. c #0F73A2",
"/. c #0F77A8",
"(. c #0F79AB",
"). c #1375A1",
"_. c #1977A0",
"`. c #1479A4",
"'. c #1A7BA4",
"]. c #127CAB",
"[. c #1B7EA8",
"{. c #0F7FB2",
"}. c #107EB1",
"|. c #2F8499",
" X c #398597",
".X c #1D80A6",
"XX c #1481AD",
"oX c #1B83AB",
"OX c #1F89AF",
"+X c #1283B2",
"@X c #1D8AB2",
"#X c #1989B6",
"$X c #1A92BB",
"%X c #2785A5",
"&X c #2185AB",
"*X c #248AAD",
"=X c #348EA6",
"-X c #248DB2",
";X c #298EB2",
":X c #2591B5",
">X c #2B94B6",
",X c #2495BA",
"<X c #2C96B9",
"1X c #2598BE",
"2X c #2C99BB",
"3X c #3699B8",
"4X c #339CBC",
"5X c #32A0BE",
"6X c #54A8B3",
"7X c #78AAA7",
"8X c #339FC1",
"9X c #34A3C3",
"0X c #3BA4C2",
"qX c #3DA9C6",
"wX c #30A8CA",
"eX c #36AAC9",
"rX c #3CACC9",
"tX c #41A8C4",
"yX c #41ADCA",
"uX c #44B2CD",
"iX c #48B6CE",
"pX c #54B4C5",
"aX c #49B9D3",
"sX c #4DBBD4",
"dX c #51BCD4",
"fX c #59BFD3",
"gX c #4EC1D8",
"hX c #57C5DA",
"jX c #68D6E6",
"kX c #6BD8E8",
"lX c #75E2ED",
"zX c #ADBDC4",
"xX c #96DADF",
/* pixels */
"-.:.F.:.:.F.J.J.J.'.yXI.Z.S.S.S.Z.J.J.J.J.S.-.-.-.A.I.2XW.-.-.Z.Z.Z.J.&X0XY.K.K.oX<XoXY.J.J.Z.:.E.>XA.:.:.-.:.:.A.:.A.^.$X_.J.S.",
":.:.K.S.S.J.J.J.J.-XhX9X).L.K.K.S.F.J.J.J.A.-.-.-.S.oXQ.:.-.-.-.A.:.F.yX4XJ.J.J.J.E.&X2X<X4X4X4X9XH.:.Z.:.Z.S.F.J.K.^.^._.&XY.J.",
"S.J.^.^.K.J.J.J.`.@X[.*X,X`.F.Z.F.J.J.J.J.A.-.-.:.Q.Q.A.H.D.:.-.:.F.>XiXE.J.J.A.S.J.J.E.[.4XdXkXyXJ.S.Z.Z.S.:.:.S.K.K.J.J..X&XK.",
"Y.K.^.K.L.^.'.<X>XI.:.A.E.`.).S.S.K.J.J.J.S.:.:.&XiX>X>X>X.X_.[._.<XjX0XJ.J.S.Z.K.J.J.J.J.J.'.hXuX].).K.S.Z.Z.S.J.K.J.J.J.J.*X>X",
"rX4X9X5X4X9X9X;XY.A.-.A.S.S.S._.;X.X[.'._.&X&X.XsXsX.XP.Z.:.A.H.P.&XdX2XJ.J.S.F.K.J.K.T.J.J.J.tXuXL.K.J.J.J.J.J.K.J.K.J.J.J.J.4X",
"0XoX@X>X@X_.Y.S.F.J.S.S.S.S.-.A.;XtX-X:X,X[.Y.E.:X*X-.-.-.-.-.=.=.:.oXXX^.^.^.J.Z.S.J.).].K.J.*XsXE.J.J.J.J.J.K.J.J.K.J.J.J.J.;X",
"<XJ.J.K.K.J.A.-.Z.S.J.J.S.J.S.S.J.oX`.J.L.K.A.:._.&X:.-.-.-.=.p 3 @.oXE.J.L.K.J.F.J.J.J.L.`.L.E.sX@XJ.J.J.K.K.J.J.J.J.K.J.J.J.Y.",
":XY.J.J.K.J.Z.-.-.Z.S.S.J.L.K.K.J.Y.OXY.K.F.-.:.[.I.Z.Z.:.-.-.6   ` @XY.J.J.J.J.J.K.J.J.J.K.T.L.0X9XL.J.K.K.J.J.J.J.J.J.K.J.J.K.",
"<X'.J.J.J.L.F.Z.A.:.-.:.S.L.K.@.R @..X.XK.K.A.S.'.:.-.Z.Z.R p G U  .' @.J.S.S.S.S.J.K.J.J.J.F.~ ' =X).K.K.J.K.J.J.J.J.J.K.J.S.F.",
"-X<XJ.J.J.J.L.J.A.-.-.:.S.^.L.T   W ).-XE.L.K.`.'.Z.-.:.Z.% . 7.n.N . a S.:.-.-.-.S.K.J.J.J.S.4 . !.`.K.J.J.J.J.K.K.J.K.S.Z.A.S.",
"[.iXY.F.J.K.).T.J.S.S.S.J.;.` ( k ( #.G.E.K.E.2X`.J.A.A.A.3 + 7.n.6.H [ ~ ^ A.A.S.J.K.J.A.` ` l k ] #.:.T.J.J.J.J.J.K.K.:.-.-.Z.",
"E.2XE.F.S.J.K.^.K.J.J.J.J.9 . v u.v . p `./.1X,X^.L.K.L.H.3 + 7.n.n.N.5.@ 0 H.J.J.K.K.J.:.O # O.w.u & ` L.L.J.J.J.J.J.J.:.-.-.-.",
".X_.-XJ.J.K.L.^.K.J.J.L.K.9 . v u.F : l R.E.2XE.K.L.L.`.H.3 + 7.n.b.b.6.& 5 D.J.J.K.S.;.%.8 t 0.w.u & *.oXK.J.J.J.J.J.J.A.-.-.-.",
"W.Z.*X'.:.F./.^.J.K.^.^.J.6 . v y.w.w.O.q 0 Q.^.L.L.T.T.H.3 + 7.n.N.N.a.+ 4 A.J.J.K.@.O e q.w.w.w.t   *.uX_.J.J.J.J.J.J.S.-.:.I.",
"Z.-.H.5XH.-.K.^.K.`.].L.J.p % v q.w.y.e.w q =X[.^.`.E.L.F.3 + 7.n.V.V.Y . 3 Z.J.J.F.' # t w.w.q.0.u % ` :XqX<X_.J.J.J.J.F.S.'.>X",
"-.-.-.Q.-XS.S.^.T.XXXXK.J.A.A.W = z p.i.O.o.( s G.+XT.L.A.% + 7.N.V.b.Y . 3 A.K.~ 6 l o.O.w.0.e ; 1.R.A.J.'.4X9X<X;XoX_.*X0X.XA.",
"H.:.-.:.:X<XY.L.L.].`.K.K.L.T.W . z p.y.y.w.8 + ~.,X].).F.3 + 7.n.n.v.Y o 4 A.J.R   z y.y.y.0.$ . 1.,XA.S.J.J.Y._._.*X-X9XsX<XQ.",
">XoXS.:.*X4X2X*X_.XX+X].^.+XXX_ & B y.y.y.w.8 o !.aX3X' ( I U l.n.U b B ~ ^ S.J.E . z y.y.y.0.$ . ,.1XS.S.K.K.J.J.J.J.K.^.XX[.*X",
"S._.-X4X&XA._.4XuXeXwX1X:X9XsX2.& j y.y.y.w.8 o G.wX|.& , k.n.n.N.Z   i -.-.S.J.E . z i.p.y.9.= o ,.:XF.J.K.L.K.J.J.J.K.].(.^.K.",
"J.A.I.qX-XF.K.L.oX@XoX#X$X#X9X<.@ j y.y.y.w.8 o 1.#XH.% w x.n.N.V.Z   i -.-.Z.Y.E . x i.y.w.9.= o ,.*XZ.Z.J.L.L.J.J.K.^.L.K.K.L.",
"J.K.J._.2XL.L.L.^.L.^.(.+X+X{.~ o j y.y.y.w.8 o ,.+XA.+ w c.N.n.n.N . i -.-.Z.Y.E o V y.y.w.0.$ . >.-XZ.Z.J.L.L.K.K.L.^.J.J.J.J.",
"J.J.L.L.<X'.K.L.^.^.(.{.}.`.E._ 8 c y.y.y.w.8 o ,.].>.& , x.n.v.b.N   E I.:.Z.P./ & x y.y.y.0.= o 1.-XA.A.J.L.L.L.^.].T.J.J.J.J.",
"J.J.K.L.OX@XK.L.(.^.(.{.].E * v r.y.y.y.y.r.8 o ;.^.;.+ > l.n.b.n.N   a &X&XW.Y.! o z y.y.y.0.= o ~.oXJ.S.K.L.L.K.K.L.K.J.J.J.J.",
"J.J.K.L.oX-XK.I.).L./.{.].W 5 { r.y.i.y.y.w.t * &.Y.;.3 y g.c.v.n.G @ a >.W.<X*X! + x y.y.y.q.; +  X'.K.J.J.L.L.K.F.K.K.J.J.J.J.",
"J.J.K.].:X_.` i %.).].+X#X].`.' : c p.y.y.y.O.+.) i _ H.;.w 2 f.n.k.f.I 0 6 i d } O.r.y.u.u.q.; O  X_.J.J.J.L.P.Q i ,.K.J.J.J.J.",
"J.K.L.E.,XE.Q . ' `.].}.}.}.+X~ o z p.y.y.y.y.p.z   Q P.=.% + 7.n.v.n.5.o . . . F y.y.y.y.y.q.; O ~.&XJ.J.J.L.P.i o &.K.J.S.A.S.",
"Z.J.S.&X2.Q  .I  .Q #.E.(.].+XW.G.2.B c r.y.y.y...v ) R p o @ 7.n.v.n.5.o # x v 0.y.u.y.o.j l %.&.;XyX).K.A.~ / L P [ W $.:.-.:.",
"Z.A.:.=Xf   Y V.K   i I.^.}.+X].$X X+ : r.y.y.y.y.u.A     . @ 7.n.n.n.5.+ = 0.y.y.y.y.u.F . 3 F.L.[.gX8XK.>.O @ f.n.b   Q :.-.-.",
"S.Z.&XpXs + Y b.6.b V #.$.;.=.F.@X|.o : r.y.y.y...v  .[ [ M m g.b.g.a.Z + = 0.y.y.y.O.A ) _ #.`.XXF.~. X,.' n m k.v.b . Q :.-.-.",
"`.:XhXhXs . U b.v.v.s.@ o o o #.,X Xo ; q.y.y.u.k . 3.xXxXB.v.v.b.G O o o ; q.y.y.y.x . E XX$XwX#XW . O + h c.b.n.b.b   ~ J.Z.Z.",
":X:X0XtXE 4 L 8.h.v.f.w , , , ' =X!.6 r ..o.w.y.x ; 3.zX7XB.v.n.M.N . % 9 r ..O.r.y.v ; ! F.E.Q.J.! , , , M N.N.l.g. .p ,.*X*X>X",
"F.:.P.*XA.Z.! X N v.v.x.k.k.k.n 0 ' A.=.5 = ..y.w.q.V 7 h x.b.M.b.N   T K.H.9 * ..u.w.w.} * 3 * 3 I x.z.l.c.V.c.h = !..X).I.H.H.",
"Z.:.A._.A.Z.R o m z.c.n.b.b.b.M & Q E.U.5 # ..y.u.y.A o , c.M.b.v.N   T Y.H.9 # ..y.y.u.| + o o o Y n.n.n.n.M.h.w 3 ,.L.J.:.-.-.",
":.A.Z.J.:.Z.=.$.' 1 n x.b.v.n.Z o ' ,X%X5 + ..y.y.y.} + w c.n.v.b.N . % p d } ..r.y.y.u.| + o O + Y M.n.n.f.b h ;.A.J.K.K.A.-.-.",
"-.S.A.E.A.-.Z.A.@.  < x.b.n.N.M . R F.H.3 . | y.y.y.A o > x.n.v.n.N . o . = 0.y.y.y.y.u.| + o o + U n.n.n.s.- 5 H.L.L.K.L.J.Z.-.",
"A.S.S.*X'.-.-.A.A.@.' C Z x.b.7.K C E Q O + | y.y.y.O.c V m Z g.b.s.K n o = 0.y.i.p...j t o @ Z K h.n.s.M 4.6X XK.L.L.L.L.K.S.Z.",
"J.S.K.0XsXE.S.S.J.J.:.O $ g.b.v.b.P     . + ..y.y.y.y.y.O.# @ 7.n.n.n.5.o * 0.i.p.p.c o o o = h.N.N.V.L o [ xXsXL.L.L.L.L.K.J.J.",
"J.J.[.dXlXhX~.&.D.J.Z.% - g.v.v.v.6.b 2 . . z A O.y.y.y.o.= @ 7.n.n.n.5.+ = q.p...A u @ @ + > k.N.N.N.L o ( jXhXG.;.H.L.L.K.J.K.",
"L._.uXlXlXkX2.o *.-X=X9 > g.b.v.v.c.c.8.@   o & D y.y.y.O.= + 7.n.n.N.5.+ q t.i.t o o @ @ o = h.N.n.N.K   p >XfX! O ;.L.L.J.K.K.",
"4XeXgXyX3X%X' ; ' R.~.d f s.h.z.v.v.v.f.< > & & c y.w.O...w < f.n.l.h.I q f ..o.j > , < , , h k.M.l.h. .i W H.~.( : *.H.P.J._.4X",
"_.E.`.I.a 3 v q.c 3 R H.H.s - U v.v.v.c.k.g.h o x u.F = y j.x.v.N.J = u q.+.8 = U k.k.x.l.l.l.b.n.m $ _ E.D.0 9 ..w.l 3 @.-XuXqX",
"J.S.S.A.5 . } p.v . p H.F.6   K c.z.z.z.b.M.h + c r.A # w l.n.M.N.J o e y.0.= o 5.b.n.n.n.n.n.v.c.b   ~ `.H.* # ..r.z & 2.uX*XK.",
"K.F.S.H.5 @ } y.0.F { d p % . , h h h M M.b.f.6.m 8 j ..F h h f.n.G o t r.0.= + 5.n.n.N.n.n.x.M b = o 6 R ! } S t e 2.pXpX_.J.J.",
"K.J.J.H.0 & D y.y.y...+   . . . o o o , x.b.n.n.M   t y.O.# o s.n.N o t r.0.= + 5.n.n.N.n.n.x.w O o o .   : w.q.; o G.jX4XK.K.K.",
"J.S.A.F.@./ ( k F r.0.x x x z x c u o , k.b.v.b.M   u y.O.# + s.n.N o u r.0.= + 5.n.n.V.h.J L V x x x x x A r.q.: O !.sX`.K.K.J.",
"J.J.A.A.Z.:.R   j y.y.y.y.y.y.y.p.A . , x.b.b.b.M   u y.O.# @ d.b.N . u y.0.* o 5.b.N.C.s.- = 0.y.y.y.y.y.y.u.q.: o G.8XK.J.J.J.",
"J.J.S.A.F.Z.` p ( F ..w.w.w.w.y.y.| e k U 6.z.n.P h V | D b n j.n.N . 8 | D b b f.V.x.d.4.u j q.y.y.y.y.y.q.| { ! a G.;XJ.J.J.J.",
"J.J.J.J.K.L.J.J.%.o : w.y.y.y.u.u.y.r...$ $ 7.n.v.v.Y % w x.M.n.n.N . + # w l.N.N.N.K & u i.y.y.y.y.y.y.y...+ 3 D.J.*X<XS.J.J.J.",
"^.^.T.J.J.^.L.J.$.3 r o.O.q.e.q.O.q.y.o.# @ U k.x.n.a.w b f.l.c.n.K > > & w l.N.n.n.J o e y.y.r.q.q.0.0.0.} 5 i U.<XeXrXF.S.J.J.",
"K.K.T.K.J.^.].L.J.F.;.; ; q > ; # j y.o.# o $ > P n.M.m.d.< > s.n.x.l.Y & , h.n.n.n.J o e r.q.e ; ; ; * # d F.*XrX;XH.[.'.F.J.J.",
"J.J.K.K.J.K.(.L.`.`.G.0 7 + O o . u y.O.= # # + K b.M.N.g.= + 7.n.b.n.s.& , h.n.b.b.J o t r.q.; o + % * + E :X2X'.F.-.Z.W.:X`.K.",
"Y.K.J.J.Y.'.9X4X:X2XuX6XG.^ ^ i . j y.w.| } | ..V b P V.j.; + 7.n.I b Z 5.s.c.v.G h V } v t f ;.;.>.F.=X6X6X<XF.S.S.-.-.:.&XiX>X",
"hX0X4X<X0XeXrX,XY.S.&X9XA.-.Z.T   u r.y.y.y.y.y.l o n V.l.; # s.n.N o b b.N.N.v.h   z u.| o 3 F.L.^./.@XlXhXP.-.:.A.-.:.S.J.qXjX",
"jXdX0X-X_.XX+XL.J.Z.S.J.-.Z.S.@.Q ( x x x x x x 8 . < K Z @ o n J w O , J K J G > . 8 x ) #.&.J.L.L.L.E.dXtXS.:.:.A.A.S.J.K.oXjX",
"&XE.K.J.J.L.].K.J.F.F.A.Z.F.:.-.:.~ . . . . . . . . o o o . . . . . o @ & o . . . . .   E Y.`.).L.L.L.K.0X0XJ.F.S.J.J.J.J.J.[.uX",
"J.K.K.J.J.K.].K.J.J.).F.F.Z.-.-.-.@.i a Q / E a E W E R ' ( a E E a ( ' E p p p p a R E @.L.L.L.L.L.L.K.4X4XJ.J.J.K.J.J.K.J.-X_.",
"J.K.K.J.J.J.^.L.J.J.-X`.S.-.-.-.-.:.S.I.).#X].Y.).Y.I.L.-XyXE.E.E.K.:X4XJ.S.A.A.A.A.J.).L.L.L.L.L.K.K.J.<X4XJ.J.J.L.L.`.K._.-XK.",
"J.K.K.K.J.J.L.^.K.J.<XoXK.Z.Z.Z.S.F.J.K.L.).].^.L.L.L.K._.dX_.L.L.K.oX4XK.J.J.J.A.:.F.^.T.L.L.K.K.F.A.Z.W.qXY.J.J.J.^.]._.2XE.J.",
"J.J.J.J.K.J.J.T.^.T.9X#X(.K.J.J.J.K.J.K.L.L.L.L.L.L.L.K.E.rX_.K.L.L.'.0XE.J.J.J.S.S.J.L.L.K.J.S.:.Z.:.-.P.gX;XJ.J.J.L.#XyX*XJ.J.",
"J.S.Z.A.J.J.K.J.K.[.uX'.T.^.J.J.K.K.K.K.K.K.K.K.K.K.K.J.L.9X_.K.K.K.`.aX[.J.J.K.J.J.J.J.L.J.A.-.-.:.Z.Z.-XhXaXoXY.E..XiXeX^.K.J.",
"F.S.Z.-.S.J.J.J.K.E.uX_.K.L.J.J.K.K.J.J.J.J.J.J.J.J.K.J.E.iX_.J.J.J.XXgX4XJ.J.K.J.J.J.J.L.S.-.-.-.-.:.*XqXW.P..X&X<XhXqXE.`.K.K.",
":.:.S.:.:.J.J.J.J.E.5XE.K.K.J.J.J.J.J.J.J.J.S.S.S.J.S.S.'.hX_.J.K.L.oXjXdXE.J.K.K.J.J.K.L.Z.-.-.-.-.W.aX&X-.-.A.Z.A.>X-XK.^.K.F.",
"-.-.A.A.-.S.J.J.J._.-XK.J.S.A.F.K.J.J.J.J.S.:.-.:.:.:.:.3XjX9X@XoX.XqXlXlXuX_.J.K.J.J.L.J.Z.-.-.-.Z.0X4XS.:.-.:.Z.-.H.4X[.^.K.Z.",
"-.-.A.:.-.S.J.J.J._.;XJ.Z.-.-.Z.J.J.J.J.J.S.-.-.-.:.Z.P.iXtX4X2X<X4XyXgXjXiX2X*XY.J.K.K.J.A.-.-.-.Q.9XH.:.:.-.:.Z.-.Z.&X1X/.J.Z."
};
