/* XPM */
static char *_242a69d9ae048a1c5e282806df29e6b7Og9eZDY8vgB0kGU[] = {
/* columns rows colors chars-per-pixel */
"64 64 148 2 ",
"   c #0B4E79",
".  c #0B527D",
"X  c #0C5582",
"o  c #0C5985",
"O  c #0D5D8B",
"+  c #125E89",
"@  c #0D618E",
"#  c #13648D",
"$  c #0D6593",
"%  c #0E6996",
"&  c #0E6C99",
"*  c #126691",
"=  c #136B95",
"-  c #126E9A",
";  c #0F719E",
":  c #13739D",
">  c #19749D",
",  c #1C799E",
"<  c #0F73A3",
"1  c #0F78A7",
"2  c #0F77A8",
"3  c #0F7AAB",
"4  c #1376A1",
"5  c #1977A0",
"6  c #1379A5",
"7  c #1A7BA4",
"8  c #117CAB",
"9  c #1A7FA8",
"0  c #0F7DB0",
"q  c #107EB0",
"w  c #1D81A7",
"e  c #1381AD",
"r  c #1C83AB",
"t  c #1E89AE",
"y  c #1284B3",
"u  c #1A86B2",
"i  c #1489B6",
"p  c #1C8BB4",
"a  c #148CB9",
"s  c #1A8DB9",
"d  c #1591BB",
"f  c #1D93BC",
"g  c #2181A6",
"h  c #2285AA",
"j  c #2389AE",
"k  c #2989AC",
"l  c #248DB2",
"z  c #298EB2",
"x  c #228FB8",
"c  c #2591B5",
"v  c #2691B7",
"b  c #2892B5",
"n  c #2F91B4",
"m  c #2994B5",
"M  c #2A95B7",
"N  c #2A96B7",
"B  c #2295BA",
"V  c #2495BA",
"C  c #2494BB",
"Z  c #2993B8",
"A  c #2997BB",
"S  c #2A97BA",
"D  c #2E97B8",
"F  c #2598BE",
"G  c #2D9AB9",
"H  c #2C99BB",
"J  c #2C99BC",
"K  c #3195B6",
"L  c #3297B9",
"P  c #339ABB",
"I  c #3199BC",
"U  c #339CBC",
"Y  c #379DBD",
"T  c #399FBE",
"R  c #3C9FBD",
"E  c #2EA1BF",
"W  c #33A1BE",
"Q  c #37A0BF",
"!  c #3DA2BF",
"~  c #249CC2",
"^  c #2B9DC2",
"/  c #329EC2",
"(  c #23A1C4",
")  c #2DA3C6",
"_  c #2AA6C8",
"`  c #2FA8C9",
"'  c #33A0C1",
"]  c #37A3C1",
"[  c #34A0C2",
"{  c #34A3C4",
"}  c #35A4C4",
"|  c #3BA1C0",
" . c #3AA4C3",
".. c #38A6C4",
"X. c #3CA6C4",
"o. c #37A9C6",
"O. c #3CA9C6",
"+. c #34A7C8",
"@. c #35AACB",
"#. c #3BACCB",
"$. c #3FADCB",
"%. c #3DB2CE",
"&. c #3FB2CF",
"*. c #3DB3D0",
"=. c #40A6C2",
"-. c #40AAC6",
";. c #42AAC6",
":. c #41AECA",
">. c #42AECA",
",. c #41B1CE",
"<. c #44B2CD",
"1. c #44B7CF",
"2. c #49B6CF",
"3. c #43B6D1",
"4. c #49B7D1",
"5. c #45BAD4",
"6. c #4DB9D0",
"7. c #4CBBD4",
"8. c #4FBDD4",
"9. c #4EBED6",
"0. c #4BBED8",
"q. c #50BBD2",
"w. c #51BDD5",
"e. c #4FC1D7",
"r. c #4FC2D9",
"t. c #53C0D6",
"y. c #53C3DA",
"u. c #56C7DD",
"i. c #59C6DB",
"p. c #55C8DC",
"a. c #5BCADD",
"s. c #5ECADE",
"d. c #60CDDF",
"f. c #5ECDE1",
"g. c #5FD0E1",
"h. c #60CFE2",
"j. c #62D1E3",
"k. c #64D2E4",
"l. c #69D6E6",
"z. c #6AD9E7",
"x. c #6DDAE8",
"c. c #71DEEA",
"v. c #75E2ED",
"b. c #79E5EE",
"n. c #7CE7F0",
"m. c #7FE9F1",
"M. c #81EBF2",
"N. c #8AF2F7",
/* pixels */
"  . @ . . @ $ $ $ 7 :.= X O O O X $ $ $ $ O       o = G >     X X X $ j X.- % % w A r - $ $ X . : M o . .   . . o . o < f 5 $ O ",
". . % O O $ $ $ $ l u.[ 4 & % % O @ $ $ $ o       O r , .       o . @ :.P $ $ $ $ : j J L T R R } # . X . X O @ $ % < < 5 j - $ ",
"O $ < < % $ $ $ 6 p 9 j B 6 @ X @ $ $ $ $ o     . , , o # + .   . @ n 4.: $ $ o O $ $ : 9 I w.x.:.$ O X X O . . O % % $ $ w h % ",
"- % < % & < 7 D M = . o : 6 4 O O % $ $ $ O . . g 1.M M M w 5 9 5 A j.| $ $ O X % $ $ $ $ $ 7 a.&.3 < % O X X O $ % $ $ $ $ h Z ",
"$.I [ Q P ' } z - o   o O o O 5 z w 9 7 5 h g w 9.6.w * X . o # * h q.G $ $ O @ % $ % ; $ $ $ -.,.& % $ $ $ $ $ % $ % $ $ $ $ Y ",
"..r p M p 5 - O $ $ O O O O   o z -.l b V 9 - : c j               X w e < < < $ X O $ 4 8 % $ j 9.: $ $ $ $ $ % $ $ % $ $ $ $ z ",
"D $ $ % % $ o   X O $ $ O $ O O $ w 6 $ & % o . 5 h .             O w : $ & % $ @ $ $ $ & 6 & : 7.p $ $ $ % % $ $ $ $ % $ $ $ - ",
"c - $ $ % $ X     X O O $ & % % $ - t - % @   . 9 = X X .       . $ p - $ $ $ $ $ % $ $ $ % ; % | [ & $ % % $ $ $ $ $ $ % $ $ % ",
"M 7 $ $ $ & @ X o .   . O & % $ % $ 7 w % % o O 7 .   X O     . O 5 O.: $ O O O O $ % $ $ $ % & r O.4 % % $ % $ $ $ $ $ % $ O @ ",
"l D $ $ $ $ & $ o     . O & % % & % : l : & % 6 7 X   . @ . X O $ 5 w.> O         O % $ $ $ $ 2 : G : % $ $ $ $ % % $ % O X o O ",
"9 1.- @ $ % 4 ; $ O O O $ & % & & & & c 6 % : A 6 $ o o $ @ $ $ $ 5 2.: O o O o O $ % $ $ $ & 1 $ M 9 $ & $ $ $ $ $ % % .     X ",
": J : @ O $ % < % $ $ $ & & & & & & & 8 8 1 V V < & % & & % % $ $ l Y % $ $ $ $ $ % % $ $ & < $ X K -.: & & $ $ $ $ $ $ .       ",
"w 5 l $ $ % & < % $ $ & ; & & & & & % l ~ f ^ : % & & 6 & & & % % U w $ $ $ $ $ $ % $ $ & $ o O . > 7 z 9 % $ $ $ $ $ $ o       ",
"> X j 7 . @ 2 < $ % < < & & & & & & : <.p.g.~ < & & ; & & & & % 5 2.> O . X $ $ $ % $ & $ $ . X X 5 @ h ,.5 $ $ $ $ $ $ O   . = ",
"X   # W #   % < % 6 8 & % % & & & % l 3.x $.*.p 1 6 : & & % % % r 6.*       O $ % % & $ $ $ X . o h * $ c O.D 5 $ $ $ $ @ O 7 M ",
"      , l O O < ; e e % $ $ % & & 7 #.p < 8 @.5.f 8 ; & % $ $ % A Y X . . . @ % & ; $ $ $ $ X   O r w @ $ 7 Y [ L z w 5 j ..w o ",
"# .   . c A - & & 8 6 % % & ; ; r o.V 8 8 q y #.r.B 8 < & $ $ % c t o o X o $ $ % % % % % % .   X 6 B o O $ $ - 5 5 j l [ 9.M , ",
"M r O . j P G j 4 e y 8 1 y e V +.s q q q q q a _ 5.5.f < ; : % M c X       O $ % & % $ $ $ O . . : B O O % % $ $ $ $ % 1 e 9 j ",
"O 5 l P h o 5 Y ,.@.) F c ' 9.x.) y q q q q q f ( ~ 5.r.w % < 9 } P o       o $ % < % $ $ O X $ $ 5 c @ $ % & % $ $ $ % 8 3 < % ",
"$ o = O.l @ % & r p u p f p { h.y.a y q q y q a s i y { 7.U ' 5.9.[ #       X & < % % $ $ O   o % 6 j X X $ & & $ $ % < & % % & ",
"$ % $ 5 G & & & < & < 8 q y 3 s *.^ y y q q q y y q 8 8 #.v.2.l 5 5 w #     X % < $ % % % O . X O 6 j X X $ & & % % & < $ $ $ $ ",
"$ $ & & D 7 % & 1 < 3 q q y y 0 s @.a y y q 3 e y 3 < & 9 3.r % $ O = w = . X $ 2 < & & & $ @ O O 9 j o o $ & & & < 8 ; $ $ $ $ ",
"$ $ % & t p % & 3 < 8 q y i i y y #.B 0 y y 8 y 8 < & & & 6 p ; % $ O * h h > & & & & & & % & % & G r $ O % & & % % & % $ $ $ $ ",
"$ $ % & r l % & 1 & 2 q y a a i i 5.3.i i y y e < & & & & % l 6 % $ $ O X 5 J c 9 4 1 & % & : : b t.5 % $ $ & & % $ % % $ $ $ $ ",
"$ $ % 8 c 5 % < ; < 8 y i i a d d r.g.~ a y 3 < & & & & $ O j 9 % $ $ $ O O & : r } #./ L p l r r <.> $ $ $ & & & % % $ $ $ $ $ ",
"$ % & : c : & 1 < 1 8 q q q q y i y.v.) y 8 < & & & & @ . . g 5 % $ $ % & % & % % c X.l r 4 & % & ' r $ $ $ % & & % $ $ $ O o O ",
"X $ O j P % & ; & & & < 3 8 y s a a.m.5.p 1 & & & & % X   . g = $ % % & & & & & & 7 ' : % < < & % D :.4 % $ % & & % $ $ O .   . ",
"X o . U h O @ $ % % & & ; 8 y 8 p y.} V 3.p ; % % & @ .   = A j j l w 6 ; & & & & 4 } 6 ; e 8 & % 6 y.U $ $ % & & % $ % O       ",
"O X g 6.> X . o o $ & & ; 1 ; & r @.8 4 P } ' w : & $ X * r 9 : * w J ^ l & & < < u &.u y i y r e e ) t.n & % % & & % & $ .     ",
"6 b p.i.: .     . O % & 4 6 6 & c o.; & % : w c c b n j G = X O O $ 1 8 } +.p & & r } 8 1 y d ~ y 6 1 A f.4.z 5 : % & % % @ X X ",
"c c  .O.= X       X $ 4 8 4 4 < [ G % % % & % % & : 5 : c 9 O O O $ < < 6 c b r p ' u < 1 1 p s e 1 1 1 / c.m.d.$.Y A r r j j M ",
"@ . * j O O X       $ 8 ; & & & [ w O O $ % % % % $ $ $ 9 l o X X O & e ; & & y 0.#.& < 8 q p i i q 1 1 1 / b.:.p M G p 6 = # # ",
"X X o 5 X X . .   . % < & & % : A - : r j j j M P Y c w l b $ O O $ $ 4 < & & 1 ) V 8 y f d i y y a q 8 3 f j.r % % % % $ .     ",
". o X $ . X . X . . $ % & & % j ' M M B : # = 5 w c / P <.-.= $ $ $ % ; 8 6 < 1 ) F 8 y i y 8 a y y a i y s l.l % & & & % o     ",
"  O o : o   X o O O $ $ % % : Q z # O ; @   . $ % & ; & : b r % & & & < < 8 y p ~ } 3 8 < 4 ; 8 i q i d q V v.Y % & & & & $ X   ",
"o O O j 7     o % $ $ $ $ : l , .   . @ X X X $ % ; & & % 9 / & & 4 6 8 < 1 8 8 i @.i 0 8 < ; 3 y y a a y 4.N.<.& & & & & % O X ",
"$ O % | 7.: O O $ $ $ $ : P =       X . X . O & 4 ; & & % w / & % 4 y 8 1 8 q q 0 ^ @.s q 3 8 i ~ 0.5.3.0.b.N.6.& & & & & % $ $ ",
"$ $ 9 w.v.i.z - % $ % j q.! .       X . X X X % & & & & % r { < ; 8 a y 8 q q q 8 y @.f.y.7.#.) 5.3.) ~ ..w.x.i.: % & & & % $ % ",
"& 5 <.v.b.x.i.[ j j ..j.v.=..     . o     o O % & & & & & J V 8 8 y a i y y q q 3 1 y a.x.o.f f ~ 0 y y & : D i.n & & & & $ % % ",
"U o.e.<.! l 5 : : 5 l | w.9.g o   . o     O % & & & & < r 3.s 8 8 8 i y y y y 8 ; < 1 #.) 0 y s i y a 8 ; % & l &.j % & % $ 5 P ",
"5 : 6 & $ $ % $ $ $ $ $ : 5 h 6 X . O   . % & & & & & 3 &.j.) f f s f y 8 q y y 2 1 1 / p i a y a a y 3 < ; & % w } 7 % & l ,.O.",
"$ O O O o $ % $ $ $ $ $ $ $ X - > . o . $ 6 & & & & ; f *.^ #.o.5.p.) q q q q 8 2 8 1 / p 8 f f y q q 3 1 4 ; % $ j 4.=.:.:.j % ",
"% @ O $ X o $ % $ % % % % % & 4 F - % & 4 ; & & & & 1 ` V 2 3 y i #.*.q q q q 8 1 1 8 #.u 3 a a y q q 8 < & % % % & P c.i.5 $ $ ",
"% $ $ $   . $ $ $ $ $ $ $ % & % M f y < & & & & & % 6 #.r & ; y < 6 } p 0 q q q 3 1 p r.f 3 q y i q q 8 < & < < < % w k.P % % % ",
"$ O o @ .   O $ $ $ $ $ & % $ $ L s < & & & & & & & u } ; % 6 e & < c ^ 3 q q q 8 8 B f.f 3 y y s i q 8 1 & 1 8 y 8 p 9.6 % % $ ",
"$ $ o o X   O $ $ $ $ % & $ $ : O.r & & & & & & & & V J & % 8 8 < 1 e ^ i q q q y i 7.b.F 3 y i y y q 8 1 & 1 2 8 6 w Y % $ $ $ ",
"$ $ O o @ X O $ $ $ $ $ $ $ $ 9 U ; & & ; & & & & & { V & % 8 y 1 1 1 ^ ~ q q F ) 7.v.M.r.s y y q y y 8 < & & & & % 5 z $ $ $ $ ",
"$ $ $ $ % & $ $ $ $ $ $ $ $ $ D j & ; & < & & & & & { p & & y a e < < ^ 3.) 3.g.y.*.+.&.r.y.+.s y q y e ; & & ; $ $ j M O $ $ $ ",
"< 1 ; $ $ 1 & $ $ $ % $ $ $ 5 O.: % ; & 1 < & ; < & { p & < 8 ; 6 8 1 #.n.x.r.) s f y 0 i ) 3.r.&.s 3 y e 8 & & 5 M #.$.@ O $ $ ",
"% % ; % $ < 8 & % & $ O $ - -.| O $ % ; < 1 & ; < < { p & 8 ; & & ; y y.m.o.y q s i q q y i i p ..3.^ 6 8 < & b #.z # 9 7 @ $ $ ",
"$ $ % % $ % 3 & 4 6 - 7 j : h b 7 : 9 A U o.#.J p 8 #.U < y & & & < u j.5.y 8 y y q q q y y y ; & r 3.+.e 4 B J 7 @   X > c 6 % ",
"- % $ $ - 5 } Y c J 4.a.h .   O 7 7 - 5 w V :.9.u.r.c.t.a d 4 & < 1 ^ u.p 8 8 < < 8 3 q y 8 e ; & < u 5.s.y.A @ O O     . h 1.K ",
"t.X.Y M | #.*.c - O h Y o   X O O O X O & & & 4 r A 6.z._ d i 8 ; < #.#.& & & & & & < 8 6 8 ; & & < 1 r c.s.*   . o   . O $ O.l.",
"l.w.| l 5 e y & $ X O $   X O .   X @ $ 1 ; & % % % e 5.&.< ; 8 & & { A & & % % % & 1 8 8 e 6 & & & & : q.=.O . . o o O $ % r k.",
"h : % $ $ & 8 % $ @ @ o X @ .       o & y 8 & & < 4 i f 3.r & 6 ; & / c % % $ $ $ % < 8 < & 4 : & & & % | | $ O O $ $ $ $ $ 9 <.",
"$ % % $ $ % 8 % $ $ 4 @ @ X         . % y 8 & & ; 8 6 < #.G & 8 ; % G P $ $ @ @ $ $ ; 6 & & & & & & & % Y P $ $ $ % $ $ % $ l 5 ",
"$ % % $ $ $ < & $ $ l 6 O         . O % 4 y 8 & 4 & & & l :.: 4 4 % V Y $ O o O O o $ 4 & & & & & % % $ M Y $ $ $ & & 1 % 5 l % ",
"$ % % % $ $ & 1 % $ L r % X X X O @ % % & 4 8 < & & & % 5 w.5 % & % w I % $ $ $ o . @ < ; & & % % @ o X > O.- $ $ $ 1 3 5 G : $ ",
"$ $ $ $ % $ $ ; < ; } s 3 % $ $ $ % $ % & & & & & & & % : $.5 % & & 5 X.: $ $ $ O O $ & & % $ O . X .   * t.z $ $ $ & p :.j $ $ ",
"$ O X o $ $ % $ % 9 1.7 ; < $ $ % % % % % % % % % % % $ & [ 5 % % % 6 4.9 $ $ % $ $ $ $ & $ o     . X X l y.4.r - : w 4.#.< % $ ",
"@ O X   O $ $ $ % : <.5 % & $ $ % % $ $ $ $ $ $ $ $ % $ : 4.5 $ $ $ e r.P $ $ % $ $ $ $ & O         . k #.> * w h D t.O.: 6 % % ",
". . O . . $ $ $ $ : E : % % $ $ $ $ $ $ $ $ O O O $ O O 7 t.5 $ % & u h.q.: $ % % $ $ % & X         > 5.g     o X o K l % < % @ ",
"    o o   O $ $ $ : j % $ O o @ % $ $ $ $ O .   . . . . L k.} p w w O.c.c.<.5 % % $ $ & $ X       X X.Y O .   . .   # Y 9 1 % X ",
"    o .   O $ $ $ : z $ X     X $ $ $ $ $ O       . X * 2.-.P G D [ :.r.l.4.G j - $ % % $ o       , ' # . .   . X   X h F 2 $ X "
};
